<svg width="30" height="58" viewBox="0 0 30 58" fill="none" xmlns="http://www.w3.org/2000/svg">
<rect x="8" y="30" width="16" height="3" fill="#F4230D"/>
<rect x="9" y="29" width="15" height="1" fill="#F4230D"/>
<rect x="24" y="32" width="1" height="2" fill="#F4230D"/>
<rect x="25" y="33" width="1" height="2" fill="#F4230D"/>
<rect x="26" y="34" width="1" height="2" fill="#F4230D"/>
<rect x="27" y="35" width="1" height="2" fill="#F4230D"/>
<rect x="24" y="34" width="2" height="1" fill="#F4230D"/>
<rect x="25" y="35" width="2" height="1" fill="#F4230D"/>
<rect x="26" y="36" width="2" height="1" fill="#F4230D"/>
<rect x="23" y="33" width="2" height="1" fill="#F4230D"/>
<path fill-rule="evenodd" clip-rule="evenodd" d="M23 33H7V34H6V35H5V36H4V37H3V39H2V41H1V50H2V52H3V54H4V55H5V56H6V57H7V58H23H24V57H25V56H26V54H27V53H28V51H29V49H30V42H29V40H28V38H27V37H26V36H25V35H24V34H23V33Z" fill="white"/>
<rect x="17" y="47" width="2" height="2" fill="black"/>
<rect x="17" y="41" width="2" height="2" fill="black"/>
<path fill-rule="evenodd" clip-rule="evenodd" d="M9 18H24V19H25V20H26H27V25H26V27H25V28H24V29H9V28H8V27H7V25H6V20H7H8V19H9V18Z" fill="white"/>
<rect x="14" y="21" width="2" height="2" fill="black"/>
<rect x="20" y="21" width="2" height="2" fill="black"/>
<rect x="8" y="18" width="17" height="1" fill="#A9B2BB"/>
<path fill-rule="evenodd" clip-rule="evenodd" d="M20 3H17V4H16V5V6H14V8H12V10H9V11V12H7V13H6V14V15V16H12V15H22V16H27V15V14H26V13V12H25V11V10H23V8H22V6H21V5V4H20V3Z" fill="#FF0013"/>
<path fill-rule="evenodd" clip-rule="evenodd" d="M22 15H12V16H6V18H5V20H6H7V19H8V18H25V21H26H27V16H26H25H22V15Z" fill="white"/>
<path d="M5 20H7V21H5V20Z" fill="#CCD5DE"/>
<path fill-rule="evenodd" clip-rule="evenodd" d="M8 19H24H25V21H24V20H8H7V19H8ZM25 21H27V22H25V21Z" fill="#CCD5DE"/>
<path fill-rule="evenodd" clip-rule="evenodd" d="M18 0H21V1H20V2V3H17V2V1H18V0Z" fill="white"/>
</svg>
