<svg width="71" height="45" viewBox="0 0 71 45" fill="none" xmlns="http://www.w3.org/2000/svg">
<rect x="68" y="34.7214" width="1" height="0.989287" fill="#246F50"/>
<rect x="65" y="25.8179" width="1" height="0.989287" fill="#246F50"/>
<rect x="44" y="25.8179" width="1" height="0.989287" fill="#246F50"/>
<rect x="47" y="17.9036" width="1" height="0.989287" fill="#246F50"/>
<rect x="47" y="17.9036" width="1" height="0.989287" fill="#246F50"/>
<rect x="59" y="13.9465" width="1" height="0.989287" fill="#246F50"/>
<rect x="59" y="20.8713" width="1" height="0.989287" fill="#246F50"/>
<rect x="64" y="17.9036" width="1" height="0.989287" fill="#246F50"/>
<rect x="63" y="17.9036" width="1" height="0.989287" fill="#246F50"/>
<rect x="63" y="16.9143" width="1" height="0.989287" fill="#246F50"/>
<rect x="62" y="16.9143" width="1" height="0.989287" fill="#246F50"/>
<rect x="62" y="15.925" width="1" height="0.989287" fill="#246F50"/>
<rect x="61" y="15.925" width="1" height="0.989287" fill="#246F50"/>
<rect x="61" y="14.9358" width="1" height="0.989287" fill="#246F50"/>
<rect x="60" y="14.9358" width="1" height="0.989287" fill="#246F50"/>
<rect x="60" y="13.9465" width="1" height="0.989287" fill="#246F50"/>
<rect x="59" y="12.957" width="1" height="0.989287" fill="#246F50"/>
<rect x="58" y="12.957" width="1" height="0.989287" fill="#246F50"/>
<rect x="58" y="11.9678" width="1" height="0.989287" fill="#246F50"/>
<rect x="57" y="11.9678" width="1" height="0.989287" fill="#246F50"/>
<rect x="57" y="10.9785" width="1" height="0.989287" fill="#246F50"/>
<rect x="56" y="10.9785" width="1" height="0.989287" fill="#246F50"/>
<rect x="55" y="9" width="1" height="0.989287" fill="#246F50"/>
<rect x="56" y="9.98926" width="1" height="0.989287" fill="#246F50"/>
<rect x="55" y="9.98926" width="1" height="0.989287" fill="#246F50"/>
<rect x="54" y="10.9785" width="1" height="0.989287" fill="#246F50"/>
<rect x="53" y="11.9678" width="1" height="0.989287" fill="#246F50"/>
<rect x="52" y="12.957" width="1" height="0.989287" fill="#246F50"/>
<rect x="51" y="13.9465" width="1" height="0.989287" fill="#246F50"/>
<rect x="50" y="14.9358" width="1" height="0.989287" fill="#246F50"/>
<rect x="49" y="15.925" width="1" height="0.989287" fill="#246F50"/>
<rect x="48" y="16.9143" width="1" height="0.989287" fill="#246F50"/>
<rect x="51" y="18.8928" width="1" height="0.989287" fill="#246F50"/>
<rect x="50" y="19.8821" width="1" height="0.989287" fill="#246F50"/>
<rect x="49" y="20.8713" width="1" height="0.989287" fill="#246F50"/>
<rect x="48" y="21.8608" width="1" height="0.989287" fill="#246F50"/>
<rect x="47" y="22.8501" width="1" height="0.989287" fill="#246F50"/>
<rect x="46" y="23.8394" width="1" height="0.989287" fill="#246F50"/>
<rect x="45" y="24.8286" width="1" height="0.989287" fill="#246F50"/>
<rect x="59" y="18.8928" width="1" height="0.989287" fill="#246F50"/>
<rect x="60" y="19.8821" width="1" height="0.989287" fill="#246F50"/>
<rect x="60" y="20.8713" width="1" height="0.989287" fill="#246F50"/>
<rect x="61" y="20.8713" width="1" height="0.989287" fill="#246F50"/>
<rect x="61" y="21.8608" width="1" height="0.989287" fill="#246F50"/>
<rect x="62" y="21.8608" width="1" height="0.989287" fill="#246F50"/>
<rect x="62" y="22.8501" width="1" height="0.989287" fill="#246F50"/>
<rect x="63" y="22.8501" width="1" height="0.989287" fill="#246F50"/>
<rect x="63" y="23.8394" width="1" height="0.989287" fill="#246F50"/>
<rect x="64" y="23.8394" width="1" height="0.989287" fill="#246F50"/>
<rect x="64" y="24.8286" width="1" height="0.989287" fill="#246F50"/>
<rect x="65" y="24.8286" width="1" height="0.989287" fill="#246F50"/>
<rect x="66" y="25.8179" width="1" height="0.989287" fill="#246F50"/>
<rect x="65" y="31.7537" width="1" height="0.989287" fill="#246F50"/>
<rect x="48" y="28.7856" width="1" height="0.989287" fill="#246F50"/>
<rect x="48" y="28.7856" width="1" height="0.989287" fill="#246F50"/>
<rect x="42" y="34.7214" width="1" height="0.989287" fill="#246F50"/>
<rect x="43" y="33.7322" width="1" height="0.989287" fill="#246F50"/>
<rect x="44" y="32.7429" width="1" height="0.989287" fill="#246F50"/>
<rect x="45" y="31.7537" width="1" height="0.989287" fill="#246F50"/>
<rect x="46" y="30.7644" width="1" height="0.989287" fill="#246F50"/>
<rect x="47" y="29.7751" width="1" height="0.989287" fill="#246F50"/>
<rect x="49" y="27.7964" width="1" height="0.989287" fill="#246F50"/>
<rect x="50" y="26.8071" width="1" height="0.989287" fill="#246F50"/>
<rect x="60" y="26.8071" width="1" height="0.989287" fill="#246F50"/>
<rect x="61" y="27.7964" width="1" height="0.989287" fill="#246F50"/>
<rect x="62" y="28.7856" width="1" height="0.989287" fill="#246F50"/>
<rect x="63" y="29.7751" width="1" height="0.989287" fill="#246F50"/>
<rect x="64" y="30.7644" width="1" height="0.989287" fill="#246F50"/>
<rect x="66" y="32.7429" width="1" height="0.989287" fill="#246F50"/>
<rect x="67" y="33.7322" width="1" height="0.989287" fill="#246F50"/>
<rect x="52" y="33.7322" width="6.68354" height="11.2678" fill="#604022"/>
<path d="M55.7168 9.98926L64.3771 18.8928H47.0565L55.7168 9.98926Z" fill="#246F50"/>
<path d="M55.2871 14.9458L66.5454 26.8172H44.0288L55.2871 14.9458Z" fill="#246F50"/>
<path d="M55.5 21.5544L68.9234 35.6518H42.0766L55.5 21.5544Z" fill="#246F50"/>
<rect x="54" y="13.9465" width="1" height="0.989287" fill="#FCFBE9"/>
<rect x="58" y="26.8071" width="1" height="0.989287" fill="#FCFBE9"/>
<rect x="49" y="32.7429" width="1" height="0.989287" fill="#FCFBE9"/>
<rect x="57" y="30.7644" width="1" height="0.989287" fill="#FCFBE9"/>
<rect x="53" y="31.7537" width="1" height="0.989287" fill="#FCFBE9"/>
<rect x="61" y="32.7429" width="1" height="0.989287" fill="#FCFBE9"/>
<rect x="52" y="27.7964" width="1" height="0.989287" fill="#FCFBE9"/>
<rect x="60" y="22.8501" width="1" height="0.989287" fill="#FCFBE9"/>
<rect x="55" y="23.8394" width="1" height="0.989287" fill="#FCFBE9"/>
<rect x="51" y="21.8608" width="1" height="0.989287" fill="#FCFBE9"/>
<rect x="54" y="18.8928" width="1" height="0.989287" fill="#FCFBE9"/>
<rect x="57" y="15.925" width="1" height="0.989287" fill="#FCFBE9"/>
<path d="M20 0L28.6603 9H11.3397L20 0Z" fill="#246F50"/>
<path d="M20 5L32.9904 20H7.00962L20 5Z" fill="#246F50"/>
<path d="M20 13L37.3205 34H2.67949L20 13Z" fill="#246F50"/>
<rect x="17" y="34" width="6" height="11" fill="#604022"/>
<rect x="2" y="33" width="1" height="1" fill="#246F50"/>
<rect x="7" y="19" width="1" height="1" fill="#246F50"/>
<rect x="16" y="17" width="1" height="1" fill="#246F50"/>
<rect x="32" y="19" width="1" height="1" fill="#246F50"/>
<rect x="27" y="8" width="1" height="1" fill="#246F50"/>
<rect x="32" y="19" width="1" height="1" fill="#246F50"/>
<rect x="27" y="7" width="1" height="1" fill="#246F50"/>
<rect x="24" y="4" width="1" height="1" fill="#246F50"/>
<rect x="18" y="1" width="1" height="1" fill="#246F50"/>
<rect x="12" y="7" width="1" height="1" fill="#246F50"/>
<rect x="13" y="6" width="1" height="1" fill="#246F50"/>
<rect x="14" y="5" width="1" height="1" fill="#246F50"/>
<rect x="15" y="4" width="1" height="1" fill="#246F50"/>
<rect x="16" y="3" width="1" height="1" fill="#246F50"/>
<rect x="17" y="2" width="1" height="1" fill="#246F50"/>
<rect x="19" width="1" height="1" fill="#246F50"/>
<rect x="20" width="1" height="1" fill="#246F50"/>
<rect x="21" y="1" width="1" height="1" fill="#246F50"/>
<rect x="22" y="2" width="1" height="1" fill="#246F50"/>
<rect x="23" y="3" width="1" height="1" fill="#246F50"/>
<rect x="25" y="6" width="1" height="1" fill="#246F50"/>
<rect x="25" y="5" width="1" height="1" fill="#246F50"/>
<rect x="26" y="6" width="1" height="1" fill="#246F50"/>
<rect x="28" y="8" width="1" height="1" fill="#246F50"/>
<rect x="17" y="12" width="1" height="1" fill="#FCFBE9"/>
<rect x="17" y="12" width="1" height="1" fill="#FCFBE9"/>
<rect x="22" y="15" width="1" height="1" fill="#FCFBE9"/>
<rect x="14" y="15" width="1" height="1" fill="#FCFBE9"/>
<rect x="18" y="17" width="1" height="1" fill="#FCFBE9"/>
<rect x="20" y="22" width="1" height="1" fill="#FCFBE9"/>
<rect x="25" y="16" width="1" height="1" fill="#FCFBE9"/>
<rect x="21" y="4" width="1" height="1" fill="#FCFBE9"/>
<rect x="16" y="6" width="1" height="1" fill="#FCFBE9"/>
<rect x="16" y="29" width="1" height="1" fill="#FCFBE9"/>
<rect x="25" y="30" width="1" height="1" fill="#FCFBE9"/>
<rect x="12" y="29" width="1" height="1" fill="#FCFBE9"/>
<rect x="12" y="29" width="1" height="1" fill="#FCFBE9"/>
<rect x="20" y="27" width="1" height="1" fill="#FCFBE9"/>
<rect x="29" y="29" width="1" height="1" fill="#FCFBE9"/>
<rect x="15" y="23" width="1" height="1" fill="#FCFBE9"/>
<rect x="23" y="19" width="1" height="1" fill="#FCFBE9"/>
<rect x="26" y="24" width="1" height="1" fill="#FCFBE9"/>
<rect x="21" y="10" width="1" height="1" fill="#FCFBE9"/>
<rect x="26" y="7" width="1" height="1" fill="#246F50"/>
<rect x="11" y="8" width="1" height="1" fill="#246F50"/>
<rect x="23" y="9" width="1" height="1" fill="#246F50"/>
<rect x="24" y="10" width="1" height="1" fill="#246F50"/>
<rect x="25" y="11" width="1" height="1" fill="#246F50"/>
<rect x="26" y="12" width="1" height="1" fill="#246F50"/>
<rect x="27" y="13" width="1" height="1" fill="#246F50"/>
<rect x="27" y="14" width="1" height="1" fill="#246F50"/>
<rect x="28" y="14" width="1" height="1" fill="#246F50"/>
<rect x="28" y="15" width="1" height="1" fill="#246F50"/>
<rect x="29" y="15" width="1" height="1" fill="#246F50"/>
<rect x="30" y="16" width="1" height="1" fill="#246F50"/>
<rect x="29" y="16" width="1" height="1" fill="#246F50"/>
<rect x="30" y="17" width="1" height="1" fill="#246F50"/>
<rect x="31" y="18" width="1" height="1" fill="#246F50"/>
<rect x="16" y="9" width="1" height="1" fill="#246F50"/>
<rect x="15" y="10" width="1" height="1" fill="#246F50"/>
<rect x="14" y="11" width="1" height="1" fill="#246F50"/>
<rect x="13" y="12" width="1" height="1" fill="#246F50"/>
<rect x="11" y="15" width="1" height="1" fill="#246F50"/>
<rect x="12" y="13" width="1" height="1" fill="#246F50"/>
<rect x="11" y="14" width="1" height="1" fill="#246F50"/>
<rect x="9" y="16" width="1" height="1" fill="#246F50"/>
<rect x="10" y="15" width="1" height="1" fill="#246F50"/>
<rect x="10" y="16" width="1" height="1" fill="#246F50"/>
<rect x="9" y="17" width="1" height="1" fill="#246F50"/>
<rect x="8" y="18" width="1" height="1" fill="#246F50"/>
<rect x="37" y="33" width="1" height="1" fill="#246F50"/>
<rect x="13" y="20" width="1" height="1" fill="#246F50"/>
<rect x="13" y="21" width="1" height="1" fill="#246F50"/>
<rect x="12" y="21" width="1" height="1" fill="#246F50"/>
<rect x="12" y="22" width="1" height="1" fill="#246F50"/>
<rect x="11" y="23" width="1" height="1" fill="#246F50"/>
<rect x="10" y="24" width="1" height="1" fill="#246F50"/>
<rect x="9" y="25" width="1" height="1" fill="#246F50"/>
<rect x="9" y="26" width="1" height="1" fill="#246F50"/>
<rect x="8" y="26" width="1" height="1" fill="#246F50"/>
<rect x="8" y="27" width="1" height="1" fill="#246F50"/>
<rect x="7" y="27" width="1" height="1" fill="#246F50"/>
<rect x="7" y="28" width="1" height="1" fill="#246F50"/>
<rect x="6" y="28" width="1" height="1" fill="#246F50"/>
<rect x="6" y="29" width="1" height="1" fill="#246F50"/>
<rect x="5" y="30" width="1" height="1" fill="#246F50"/>
<rect x="5" y="29" width="1" height="1" fill="#246F50"/>
<rect x="4" y="32" width="1" height="1" fill="#246F50"/>
<rect x="4" y="31" width="1" height="1" fill="#246F50"/>
<rect x="3" y="32" width="1" height="1" fill="#246F50"/>
<rect x="3" y="33" width="1" height="1" fill="#246F50"/>
<rect x="35" y="31" width="1" height="1" fill="#246F50"/>
<rect x="34" y="31" width="1" height="1" fill="#246F50"/>
<rect x="35" y="33" width="1" height="1" fill="#246F50"/>
<rect x="26" y="20" width="1" height="1" fill="#246F50"/>
<rect x="25" y="20" width="1" height="1" fill="#246F50"/>
<rect x="26" y="21" width="1" height="1" fill="#246F50"/>
<rect x="27" y="21" width="1" height="1" fill="#246F50"/>
<rect x="27" y="22" width="1" height="1" fill="#246F50"/>
<rect x="28" y="22" width="1" height="1" fill="#246F50"/>
<rect x="28" y="23" width="1" height="1" fill="#246F50"/>
<rect x="29" y="23" width="1" height="1" fill="#246F50"/>
<rect x="29" y="24" width="1" height="1" fill="#246F50"/>
<rect x="30" y="25" width="1" height="1" fill="#246F50"/>
<rect x="31" y="26" width="1" height="1" fill="#246F50"/>
<rect x="32" y="27" width="1" height="1" fill="#246F50"/>
<rect x="35" y="33" width="1" height="1" fill="#246F50"/>
<rect x="29" y="25" width="1" height="1" fill="#246F50"/>
<rect x="30" y="26" width="1" height="1" fill="#246F50"/>
<rect x="31" y="28" width="1" height="1" fill="#246F50"/>
<rect x="32" y="29" width="1" height="1" fill="#246F50"/>
<rect x="33" y="30" width="1" height="1" fill="#246F50"/>
<rect x="31" y="27" width="1" height="1" fill="#246F50"/>
<rect x="32" y="28" width="1" height="1" fill="#246F50"/>
<rect x="33" y="29" width="1" height="1" fill="#246F50"/>
<rect x="34" y="30" width="1" height="1" fill="#246F50"/>
<rect x="35" y="32" width="1" height="1" fill="#246F50"/>
<rect x="36" y="32" width="1" height="1" fill="#246F50"/>
<rect x="36" y="33" width="1" height="1" fill="#246F50"/>
</svg>
