<svg width="34" height="38" viewBox="0 0 34 38" fill="none" xmlns="http://www.w3.org/2000/svg">
<g id="Cat 3">
<path id="Union" fill-rule="evenodd" clip-rule="evenodd" d="M4.5 0H3.5V1V2H2.5V3V4V5V6V7H1.5V8V9V10H0.5V18H1.5V20H2.5V25H1.5V27V31H2.5V33H3.5V34H4.5V35H5.5V36H7.5H12.5V37H13.5V38H15.5V37H16.5V36H18.5V35H20.5V34H21.5V33H22.5V31H23.5V30H24.5V29H25.5V28H26.5V26H27.5V24H28.5V23H29.5V22H30.5V21H31.5V20H32.5V19H33.5V15H32.5V14H30.5V15H29.5V18H28.5V19H27.5V20H26.5V21H25.5V22H24.5V23H23.5V25H22.5V18H21.5V17H20.5V16V14V13H19.5V10H18.5V9H17.5V8V7H16.5V6V5V4V3V2H15.5V1V0H14.5V1H13.5V2V3H12.5V4H11.5V5H7.5V4H6.5V3H5.5V2V1H4.5V0Z" fill="#FDFFB0"/>
<path id="Union_2" fill-rule="evenodd" clip-rule="evenodd" d="M7.5 10H5.5V12H7.5V10ZM12.5 10H10.5V12H12.5V10Z" fill="#212121"/>
</g>
</svg>
