<svg width="20" height="20" viewBox="0 0 20 20" fill="none" xmlns="http://www.w3.org/2000/svg">
<g clip-path="url(#clip0_2896_43059)">
<path d="M19.0909 6.36364V5.45455H18.1818V4.54545H17.2727V3.63636H16.3636V2.72727H15.4545V1.81818H14.5455V0.909091H13.6364V0H6.36364V0.909091H5.45455V1.81818H4.54545V2.72727H3.63636V3.63636H2.72727V4.54545H1.81818V5.45455H0.909091V6.36364H0V13.6364H0.909091V14.5455H1.81818V15.4545H2.72727V16.3636H3.63636V17.2727H4.54545V18.1818H5.45455V19.0909H6.36364V20H13.6364V19.0909H14.5455V18.1818H15.4545V17.2727H16.3636V16.3636H17.2727V15.4545H18.1818V14.5455H19.0909V13.6364H20V6.36364H19.0909ZM13.6364 14.5455H11.8182V13.6364H10.9091V12.7273H9.09091V13.6364H8.18182V14.5455H6.36364V13.6364H5.45455V11.8182H6.36364V10.9091H7.27273V9.09091H6.36364V8.18182H5.45455V6.36364H6.36364V5.45455H8.18182V6.36364H9.09091V7.27273H10.9091V6.36364H11.8182V5.45455H13.6364V6.36364H14.5455V8.18182H13.6364V9.09091H12.7273V10.9091H13.6364V11.8182H14.5455V13.6364H13.6364V14.5455Z" fill="#FF0000"/>
<path d="M11.8177 14.544H13.6359V13.6349H14.545V11.8168H13.6359V10.9077H12.7268V9.08949H13.6359V8.1804H14.545V6.36222H13.6359V5.45312H11.8177V6.36222H10.9086V7.27131H9.09046V6.36222H8.18137V5.45312H6.36319V6.36222H5.4541V8.1804H6.36319V9.08949H7.27228V10.9077H6.36319V11.8168H5.4541V13.6349H6.36319V14.544H8.18137V13.6349H9.09046V12.7259H10.9086V13.6349H11.8177V14.544Z" fill="white"/>
</g>
<defs>
<clipPath id="clip0_2896_43059">
<rect width="20" height="20" fill="white"/>
</clipPath>
</defs>
</svg>
