<svg width="40" height="40" viewBox="0 0 40 40" fill="none" xmlns="http://www.w3.org/2000/svg">
<g clip-path="url(#clip0_1857_28663)">
<path fill-rule="evenodd" clip-rule="evenodd" d="M28.639 20.2042C28.639 19.566 28.5817 18.9524 28.4754 18.3633H19.999V21.8446H24.8427C24.634 22.9696 23.9999 23.9228 23.0468 24.561V26.8192H25.9554C27.6572 25.2524 28.639 22.9451 28.639 20.2042Z" fill="#4285F4"/>
<path fill-rule="evenodd" clip-rule="evenodd" d="M19.9995 29.0009C22.4295 29.0009 24.4668 28.195 25.9559 26.8205L23.0472 24.5623C22.2413 25.1023 21.2104 25.4214 19.9995 25.4214C17.6554 25.4214 15.6713 23.8382 14.9636 21.7109H11.9568V24.0428C13.4377 26.9841 16.4813 29.0009 19.9995 29.0009Z" fill="#34A853"/>
<path fill-rule="evenodd" clip-rule="evenodd" d="M14.9638 21.7108C14.7838 21.1708 14.6816 20.594 14.6816 20.0008C14.6816 19.4076 14.7838 18.8308 14.9638 18.2908V15.959H11.957C11.3475 17.174 10.9998 18.5485 10.9998 20.0008C10.9998 21.4531 11.3475 22.8276 11.957 24.0426L14.9638 21.7108Z" fill="#FBBC05"/>
<path fill-rule="evenodd" clip-rule="evenodd" d="M19.9995 14.5795C21.3209 14.5795 22.5072 15.0336 23.44 15.9255L26.0213 13.3441C24.4627 11.8918 22.4254 11 19.9995 11C16.4813 11 13.4377 13.0168 11.9568 15.9582L14.9636 18.29C15.6713 16.1627 17.6554 14.5795 19.9995 14.5795Z" fill="#EA4335"/>
</g>
<defs>
<clipPath id="clip0_1857_28663">
<rect x="11" y="11" width="18" height="18" rx="5.02175" fill="white"/>
</clipPath>
</defs>
</svg>
