<svg width="40" height="40" viewBox="0 0 40 40" fill="none" xmlns="http://www.w3.org/2000/svg">
<path d="M20.0594 11.2422C14.788 11.2422 10.5369 14.6431 10.5369 18.7718C10.5369 21.4517 12.3053 23.7983 14.958 25.1383L14.0602 28.4916C14.0433 28.5419 14.0407 28.5958 14.0527 28.6474C14.0647 28.6991 14.0909 28.7464 14.1282 28.784C14.1827 28.8321 14.2528 28.8587 14.3255 28.8588C14.3857 28.854 14.4429 28.8302 14.4887 28.7908L18.3522 26.1858C18.9224 26.2645 19.4973 26.3053 20.073 26.3082C25.3376 26.3082 29.5956 22.9073 29.5956 18.7718C29.5956 14.6363 25.324 11.2422 20.0594 11.2422Z" fill="black"/>
</svg>
