<svg width="33" height="24" viewBox="0 0 33 24" fill="none" xmlns="http://www.w3.org/2000/svg">
<path d="M30.11 6.92V6.49H29.68V6.05H29.24V5.62H28.81V5.18H28.37V4.74H27.93V3.44H27.5V3H26.63V3.44H26.19V5.18H26.63V5.61H27.06V6.05H27.5V6.49H27.93V6.92H28.37V7.36H28.81V7.79V8.23H28.37V8.66H27.93V9.1H26.63V9.54H10.78V8.23H10.35V7.79H9.91V7.36V6.92H9.47V6.48V6.43V6.05V5.61V5.18V4.74H9.04V4.43V4.31V3.87H8.6V4.31H8.17V4.74V5.18H7.73V5.61H7.29V6.05H5.55V5.61H5.12V5.18H4.68V4.74V4.31H4.24V3.87H3.81V4.31V4.43V4.74H3.37V5.18V5.61V6.05V6.43V6.92H2.94V7.36V7.79V8.23H2.5V11.71H2.94V12.59H3.37V14.77H3.81V15.64H4.24V17.38V19.13H4.68V19.56H5.55V19.13H5.99V17.38H7.73V20H8.17V20.43H9.04V20H9.47V17.38H20.96V19.56H21.4V20H22.27V19.56H22.7V17.38H24.88V17.82H25.75V20.43H26.19V20.87H27.06V20.43H27.5V17.82V17.38V11.72H27.06V11.28H26.63V10.85H27.93V10.41H28.81V9.97H29.68V9.54H30.11V9.1H30.55V8.23V7.79V6.92H30.11Z" fill="#FDFFB0"/>
<path fill-rule="evenodd" clip-rule="evenodd" d="M5.55137 8.22803H4.67969V9.09971H5.55137V8.22803ZM7.7306 8.22803H6.85892V9.09971H7.7306V8.22803Z" fill="#212121"/>
</svg>
