<svg width="153" height="153" viewBox="0 0 153 153" fill="none" xmlns="http://www.w3.org/2000/svg">
<path d="M153 76.5C153 118.75 118.75 153 76.5 153C34.2502 153 0 118.75 0 76.5C0 34.2502 34.2502 0 76.5 0C118.75 0 153 34.2502 153 76.5Z" fill="#BDBDBD"/>
<path d="M76.9454 31.0752L97.275 52.2024H56.6157L76.9454 31.0752Z" fill="#246F50"/>
<path d="M76.9495 42.812L107.443 78.0232H46.4557L76.9495 42.812Z" fill="#246F50"/>
<path d="M76.9483 61.5916L117.607 110.887H36.2899L76.9483 61.5916Z" fill="#246F50"/>
<rect x="34.6934" y="108.538" width="2.34757" height="2.34757" fill="#246F50"/>
<rect x="46.4316" y="75.6752" width="2.34757" height="2.34757" fill="#246F50"/>
<rect x="67.5576" y="70.9806" width="2.34757" height="2.34757" fill="#246F50"/>
<rect x="105.115" y="75.6752" width="2.34757" height="2.34757" fill="#246F50"/>
<rect x="93.3789" y="49.8547" width="2.34757" height="2.34757" fill="#246F50"/>
<rect x="105.115" y="75.6752" width="2.34757" height="2.34757" fill="#246F50"/>
<rect x="93.3789" y="47.5072" width="2.34757" height="2.34757" fill="#246F50"/>
<rect x="86.3369" y="40.4644" width="2.34757" height="2.34757" fill="#246F50"/>
<rect x="72.2539" y="33.4237" width="2.34757" height="2.34757" fill="#246F50"/>
<rect x="58.168" y="47.5072" width="2.34757" height="2.34757" fill="#246F50"/>
<rect x="60.5156" y="45.1604" width="2.34757" height="2.34757" fill="#246F50"/>
<rect x="62.8643" y="42.8118" width="2.34757" height="2.34757" fill="#246F50"/>
<rect x="65.209" y="40.465" width="2.34757" height="2.34757" fill="#246F50"/>
<rect x="67.5576" y="38.1177" width="2.34757" height="2.34757" fill="#246F50"/>
<rect x="69.9043" y="35.7704" width="2.34757" height="2.34757" fill="#246F50"/>
<rect x="74.5986" y="31.075" width="2.34757" height="2.34757" fill="#246F50"/>
<rect x="76.9473" y="31.0752" width="2.34757" height="2.34757" fill="#246F50"/>
<rect x="79.2959" y="33.4237" width="2.34757" height="2.34757" fill="#246F50"/>
<rect x="81.6406" y="35.7704" width="2.34757" height="2.34757" fill="#246F50"/>
<rect x="83.9902" y="38.1177" width="2.34757" height="2.34757" fill="#246F50"/>
<rect x="88.6855" y="45.1604" width="2.34757" height="2.34757" fill="#246F50"/>
<rect x="88.6855" y="42.812" width="2.34757" height="2.34757" fill="#246F50"/>
<rect x="91.0303" y="45.1598" width="2.34757" height="2.34757" fill="#246F50"/>
<rect x="95.7266" y="49.8551" width="2.34757" height="2.34757" fill="#246F50"/>
<rect x="69.9043" y="59.2439" width="2.34757" height="2.34757" fill="#FCFBE9"/>
<rect x="69.9043" y="59.2439" width="2.34757" height="2.34757" fill="#FCFBE9"/>
<rect x="81.6406" y="66.2854" width="2.34757" height="2.34757" fill="#FCFBE9"/>
<rect x="62.8643" y="66.2854" width="2.34757" height="2.34757" fill="#FCFBE9"/>
<rect x="72.2539" y="70.9806" width="2.34757" height="2.34757" fill="#FCFBE9"/>
<rect x="76.9473" y="82.7174" width="2.34757" height="2.34757" fill="#FCFBE9"/>
<rect x="88.6855" y="68.6331" width="2.34757" height="2.34757" fill="#FCFBE9"/>
<rect x="79.2969" y="40.4645" width="2.34757" height="2.34757" fill="#FCFBE9"/>
<rect x="67.5576" y="45.1598" width="2.34757" height="2.34757" fill="#FCFBE9"/>
<rect x="67.5576" y="99.1483" width="2.34757" height="2.34757" fill="#FCFBE9"/>
<rect x="88.6855" y="101.496" width="2.34757" height="2.34757" fill="#FCFBE9"/>
<rect x="58.168" y="99.1487" width="2.34757" height="2.34757" fill="#FCFBE9"/>
<rect x="58.168" y="99.1487" width="2.34757" height="2.34757" fill="#FCFBE9"/>
<rect x="76.9473" y="94.4539" width="2.34757" height="2.34757" fill="#FCFBE9"/>
<rect x="98.0752" y="99.1483" width="2.34757" height="2.34757" fill="#FCFBE9"/>
<rect x="65.209" y="85.0641" width="2.34757" height="2.34757" fill="#FCFBE9"/>
<rect x="83.9902" y="75.6755" width="2.34757" height="2.34757" fill="#FCFBE9"/>
<rect x="91.0303" y="87.4122" width="2.34757" height="2.34757" fill="#FCFBE9"/>
<rect x="79.2959" y="54.5486" width="2.34757" height="2.34757" fill="#FCFBE9"/>
<rect x="91.0303" y="47.5072" width="2.34757" height="2.34757" fill="#246F50"/>
<rect x="55.8193" y="49.8551" width="2.34757" height="2.34757" fill="#246F50"/>
<rect x="83.9902" y="52.2012" width="2.34757" height="2.34757" fill="#246F50"/>
<rect x="86.3369" y="54.5486" width="2.34757" height="2.34757" fill="#246F50"/>
<rect x="88.6855" y="56.897" width="2.34757" height="2.34757" fill="#246F50"/>
<rect x="91.0303" y="59.2439" width="2.34757" height="2.34757" fill="#246F50"/>
<rect x="93.3789" y="61.5916" width="2.34757" height="2.34757" fill="#246F50"/>
<rect x="93.3789" y="63.9386" width="2.34757" height="2.34757" fill="#246F50"/>
<rect x="95.7266" y="63.9386" width="2.34757" height="2.34757" fill="#246F50"/>
<rect x="95.7266" y="66.2854" width="2.34757" height="2.34757" fill="#246F50"/>
<rect x="98.0752" y="66.2854" width="2.34757" height="2.34757" fill="#246F50"/>
<rect x="100.418" y="68.6331" width="2.34757" height="2.34757" fill="#246F50"/>
<rect x="98.0752" y="68.6334" width="2.34757" height="2.34757" fill="#246F50"/>
<rect x="100.418" y="70.9806" width="2.34757" height="2.34757" fill="#246F50"/>
<rect x="102.767" y="73.3275" width="2.34757" height="2.34757" fill="#246F50"/>
<rect x="67.5576" y="52.2012" width="2.34757" height="2.34757" fill="#246F50"/>
<rect x="65.209" y="54.5486" width="2.34757" height="2.34757" fill="#246F50"/>
<rect x="62.8643" y="56.8966" width="2.34757" height="2.34757" fill="#246F50"/>
<rect x="60.5156" y="59.2439" width="2.34757" height="2.34757" fill="#246F50"/>
<rect x="55.8193" y="66.2854" width="2.34757" height="2.34757" fill="#246F50"/>
<rect x="58.168" y="61.5916" width="2.34757" height="2.34757" fill="#246F50"/>
<rect x="55.8193" y="63.9386" width="2.34757" height="2.34757" fill="#246F50"/>
<rect x="51.1279" y="68.6334" width="2.34757" height="2.34757" fill="#246F50"/>
<rect x="53.4707" y="66.2854" width="2.34757" height="2.34757" fill="#246F50"/>
<rect x="53.4707" y="68.6331" width="2.34757" height="2.34757" fill="#246F50"/>
<rect x="51.1279" y="70.9806" width="2.34757" height="2.34757" fill="#246F50"/>
<rect x="48.7793" y="73.3278" width="2.34757" height="2.34757" fill="#246F50"/>
<rect x="116.852" y="108.538" width="2.34757" height="2.34757" fill="#246F50"/>
<rect x="60.5156" y="78.0228" width="2.34757" height="2.34757" fill="#246F50"/>
<rect x="60.5156" y="80.3699" width="2.34757" height="2.34757" fill="#246F50"/>
<rect x="58.168" y="80.3699" width="2.34757" height="2.34757" fill="#246F50"/>
<rect x="58.168" y="82.7174" width="2.34757" height="2.34757" fill="#246F50"/>
<rect x="55.8193" y="85.0641" width="2.34757" height="2.34757" fill="#246F50"/>
<rect x="53.4707" y="87.412" width="2.34757" height="2.34757" fill="#246F50"/>
<rect x="51.1279" y="89.7595" width="2.34757" height="2.34757" fill="#246F50"/>
<rect x="51.1279" y="92.1061" width="2.34757" height="2.34757" fill="#246F50"/>
<rect x="48.7793" y="92.1064" width="2.34757" height="2.34757" fill="#246F50"/>
<rect x="48.7793" y="94.4539" width="2.34757" height="2.34757" fill="#246F50"/>
<rect x="46.4316" y="94.4539" width="2.34757" height="2.34757" fill="#246F50"/>
<rect x="46.4316" y="96.8009" width="2.34757" height="2.34757" fill="#246F50"/>
<rect x="44.083" y="96.8009" width="2.34757" height="2.34757" fill="#246F50"/>
<rect x="44.083" y="99.1483" width="2.34757" height="2.34757" fill="#246F50"/>
<rect x="41.7383" y="101.496" width="2.34757" height="2.34757" fill="#246F50"/>
<rect x="41.7383" y="99.1487" width="2.34757" height="2.34757" fill="#246F50"/>
<rect x="39.3896" y="106.19" width="2.34757" height="2.34757" fill="#246F50"/>
<rect x="39.3896" y="103.843" width="2.34757" height="2.34757" fill="#246F50"/>
<rect x="37.043" y="106.19" width="2.34757" height="2.34757" fill="#246F50"/>
<rect x="37.043" y="108.538" width="2.34757" height="2.34757" fill="#246F50"/>
<rect x="112.156" y="103.843" width="2.34757" height="2.34757" fill="#246F50"/>
<rect x="109.812" y="103.843" width="2.34757" height="2.34757" fill="#246F50"/>
<rect x="112.156" y="108.538" width="2.34757" height="2.34757" fill="#246F50"/>
<rect x="91.0303" y="78.0228" width="2.34757" height="2.34757" fill="#246F50"/>
<rect x="88.6855" y="78.0228" width="2.34757" height="2.34757" fill="#246F50"/>
<rect x="91.0303" y="80.3696" width="2.34757" height="2.34757" fill="#246F50"/>
<rect x="93.3789" y="80.3699" width="2.34757" height="2.34757" fill="#246F50"/>
<rect x="93.3789" y="82.7174" width="2.34757" height="2.34757" fill="#246F50"/>
<rect x="95.7266" y="82.7174" width="2.34757" height="2.34757" fill="#246F50"/>
<rect x="95.7266" y="85.0641" width="2.34757" height="2.34757" fill="#246F50"/>
<rect x="98.0752" y="85.0641" width="2.34757" height="2.34757" fill="#246F50"/>
<rect x="98.0752" y="87.4122" width="2.34757" height="2.34757" fill="#246F50"/>
<rect x="100.418" y="89.7595" width="2.34757" height="2.34757" fill="#246F50"/>
<rect x="102.767" y="92.1061" width="2.34757" height="2.34757" fill="#246F50"/>
<rect x="105.115" y="94.4539" width="2.34757" height="2.34757" fill="#246F50"/>
<rect x="112.156" y="108.538" width="2.34757" height="2.34757" fill="#246F50"/>
<rect x="98.0752" y="89.7595" width="2.34757" height="2.34757" fill="#246F50"/>
<rect x="100.418" y="92.1064" width="2.34757" height="2.34757" fill="#246F50"/>
<rect x="102.767" y="96.8009" width="2.34757" height="2.34757" fill="#246F50"/>
<rect x="105.115" y="99.1487" width="2.34757" height="2.34757" fill="#246F50"/>
<rect x="107.463" y="101.496" width="2.34757" height="2.34757" fill="#246F50"/>
<rect x="102.767" y="94.4542" width="2.34757" height="2.34757" fill="#246F50"/>
<rect x="105.115" y="96.8009" width="2.34757" height="2.34757" fill="#246F50"/>
<rect x="107.463" y="99.1483" width="2.34757" height="2.34757" fill="#246F50"/>
<rect x="109.812" y="101.496" width="2.34757" height="2.34757" fill="#246F50"/>
<rect x="112.156" y="106.19" width="2.34757" height="2.34757" fill="#246F50"/>
<rect x="114.505" y="106.19" width="2.34757" height="2.34757" fill="#246F50"/>
<rect x="114.505" y="108.538" width="2.34757" height="2.34757" fill="#246F50"/>
<rect x="49.1035" y="99.1379" width="18.2069" height="3.41379" fill="#F4230D"/>
<rect x="50.2412" y="98" width="17.069" height="1.13793" fill="#F4230D"/>
<rect x="67.3105" y="101.414" width="1.13793" height="2.27586" fill="#F4230D"/>
<rect x="68.4482" y="102.552" width="1.13793" height="2.27586" fill="#F4230D"/>
<rect x="69.5859" y="103.69" width="1.13793" height="2.27586" fill="#F4230D"/>
<rect x="70.7246" y="104.828" width="1.13793" height="2.27586" fill="#F4230D"/>
<rect x="67.3105" y="103.69" width="2.27586" height="1.13793" fill="#F4230D"/>
<rect x="68.4482" y="104.828" width="2.27586" height="1.13793" fill="#F4230D"/>
<rect x="69.5859" y="105.966" width="2.27586" height="1.13793" fill="#F4230D"/>
<rect x="66.1729" y="102.552" width="2.27586" height="1.13793" fill="#F4230D"/>
<path fill-rule="evenodd" clip-rule="evenodd" d="M66.1722 102.552H47.9653V103.69H46.8274V104.828H45.6894V105.966H44.5515V107.103H43.4136V109.379H42.2756V111.655H41.1377V121.897H42.2756V124.172H43.4136V126.448H44.5515V127.586H45.6894V128.724H46.8274V129.862H47.9653V131H66.1722L67.3101 131V129.862H68.448L68.448 128.724H69.586V126.448H70.7239V125.31H71.8618L71.8618 123.035H72.9998L72.9998 120.759H74.1377V112.793H72.9998L72.9998 110.517H71.8618L71.8618 108.241H70.7239V107.103H69.586V105.966H68.448L68.448 104.828H67.3101V103.69H66.1722L66.1722 102.552Z" fill="white"/>
<rect x="59.3447" y="118.483" width="2.27586" height="2.27586" fill="black"/>
<rect x="59.3447" y="111.655" width="2.27586" height="2.27586" fill="black"/>
<path fill-rule="evenodd" clip-rule="evenodd" d="M50.2419 85.4827H67.3109V86.6206H68.4488L68.4488 87.7585H69.5867H70.7247V93.4482H69.5867V95.724H68.4488L68.4488 96.862H67.3109V97.9999H50.2419V96.862H49.104V95.724H47.9661V93.4482H46.8281V87.7585H47.9661H49.104V86.6206H50.2419V85.4827Z" fill="white"/>
<rect x="55.9316" y="88.8965" width="2.27586" height="2.27586" fill="black"/>
<rect x="62.7588" y="88.8965" width="2.27586" height="2.27586" fill="black"/>
<rect x="49.1035" y="85.4828" width="19.3448" height="1.13793" fill="#A9B2BB"/>
<path fill-rule="evenodd" clip-rule="evenodd" d="M62.7592 68.4138H59.3454V69.5517H58.2074V70.6897V71.8276H55.9316V74.1035H53.6557V76.3793H50.2419V77.5173V78.6552H47.9661V79.7931H46.8281V80.9311V82.069V83.2069H53.6557V82.069H65.035V83.2069H70.7247V82.069V80.9311L69.5867 80.9311V79.7931V78.6552H68.4488V77.5173V76.3793H66.173V74.1035H65.035V71.8276H63.8971V70.6897V69.5517H62.7592V68.4138Z" fill="#FF0013"/>
<path fill-rule="evenodd" clip-rule="evenodd" d="M65.0343 82.069H53.655V83.2069H46.8274V85.4828H45.6895V87.7586H46.8274H47.9653V86.6207H49.1032V85.4828H68.4481V88.8966H69.586H70.7239V83.2069H69.586H68.4481H65.0343V82.069Z" fill="white"/>
<path d="M45.6895 87.7587H47.9653V88.8966H45.6895V87.7587Z" fill="#CCD5DE"/>
<path fill-rule="evenodd" clip-rule="evenodd" d="M49.1028 86.6206H67.3097H68.4476V88.8965H67.3097V87.7585H49.1028H47.9648V86.6206H49.1028ZM68.4476 88.8965H70.7235V90.0344H68.4476V88.8965Z" fill="#CCD5DE"/>
<path fill-rule="evenodd" clip-rule="evenodd" d="M60.4827 65H63.8965V66.1379H62.7585V67.2759V68.4138H59.3447V67.2759V66.1379H60.4827V65Z" fill="white"/>
<path fill-rule="evenodd" clip-rule="evenodd" d="M91 95H92V96H93V97H94V98H95V99H96V100H100V99H101V98V97H103V96H104V95H105V96V97V98V99V100V101V102H106V103V104H107V105H108V108H109V109V111V112H110V113H111V120H112V118H113V117H114V116H115V115H116V114H117V113H118V110H119V109H121V110H122V114H121V115H120V116H119V117H118V118H117V119H116V121H115V123H114V124H113V125H112V126H111V128H110V129H109V130H107V131H96H94V130H93V129H92V128H91V126H90V122V120H91V115H90V113H89V105H90V104V103V102H91V101V100V99V98V97V96V95Z" fill="#212121"/>
<path fill-rule="evenodd" clip-rule="evenodd" d="M96 105H94V107H96V105ZM101 105H99V107H101V105Z" fill="white"/>
<path fill-rule="evenodd" clip-rule="evenodd" d="M97 92H96V93H95V94V95H94V96V97V98H95H96H97H98H99H100H101H102V97V96V95V94V93H101V92V91H100H99H98H97V92Z" fill="#E00D0D"/>
<path fill-rule="evenodd" clip-rule="evenodd" d="M101 88H100H99V89H98V90V91H99H100H101V90H102V89V88H101Z" fill="white"/>
<rect x="94" y="98" width="8" height="2" fill="white"/>
<path fill-rule="evenodd" clip-rule="evenodd" d="M76 18H78V20H79V22H80V25H81H82H83H84H85H86H87V26H86V27H85V28H84V29H83V30H82V32H83V35H84V39H83V38H82V37H81H80V36H79V35H78H76H75V36H74V37H73H72V38H71V39H70V35H71V32H72V30H71V29H70V28H69V27H68V26H67V25H68H69H70H71H72H73H74V22H75V20H76V18Z" fill="#FFFAA0"/>
</svg>
