<svg width="43" height="44" viewBox="0 0 43 44" fill="none" xmlns="http://www.w3.org/2000/svg">
<path d="M21.343 0L28.9209 7.87519H13.7651L21.343 0Z" fill="#246F50"/>
<path d="M21.3431 4.375L32.7099 17.5003H9.97623L21.3431 4.375Z" fill="#246F50"/>
<path d="M21.3432 11.3752L36.499 29.7507H6.18739L21.3432 11.3752Z" fill="#246F50"/>
<rect x="5.59277" y="28.875" width="0.875021" height="0.875021" fill="#246F50"/>
<rect x="9.96777" y="16.6252" width="0.875021" height="0.875021" fill="#246F50"/>
<rect x="17.8428" y="14.8752" width="0.875021" height="0.875021" fill="#246F50"/>
<rect x="31.8428" y="16.6252" width="0.875021" height="0.875021" fill="#246F50"/>
<rect x="27.4678" y="7.00049" width="0.875021" height="0.875021" fill="#246F50"/>
<rect x="31.8428" y="16.6252" width="0.875021" height="0.875021" fill="#246F50"/>
<rect x="27.4678" y="6.12524" width="0.875021" height="0.875021" fill="#246F50"/>
<rect x="24.8418" y="3.5" width="0.875021" height="0.875021" fill="#246F50"/>
<rect x="19.5928" y="0.875488" width="0.875021" height="0.875021" fill="#246F50"/>
<rect x="14.3428" y="6.12524" width="0.875021" height="0.875021" fill="#246F50"/>
<rect x="15.2178" y="5.25049" width="0.875021" height="0.875021" fill="#246F50"/>
<rect x="16.0918" y="4.375" width="0.875021" height="0.875021" fill="#246F50"/>
<rect x="16.9678" y="3.50024" width="0.875021" height="0.875021" fill="#246F50"/>
<rect x="17.8428" y="2.62524" width="0.875021" height="0.875021" fill="#246F50"/>
<rect x="18.7178" y="1.75024" width="0.875021" height="0.875021" fill="#246F50"/>
<rect x="20.4668" width="0.875021" height="0.875021" fill="#246F50"/>
<rect x="21.3428" width="0.875021" height="0.875021" fill="#246F50"/>
<rect x="22.2178" y="0.875488" width="0.875021" height="0.875021" fill="#246F50"/>
<rect x="23.0928" y="1.75024" width="0.875021" height="0.875021" fill="#246F50"/>
<rect x="23.9678" y="2.62524" width="0.875021" height="0.875021" fill="#246F50"/>
<rect x="25.7178" y="5.25049" width="0.875021" height="0.875021" fill="#246F50"/>
<rect x="25.7178" y="4.375" width="0.875021" height="0.875021" fill="#246F50"/>
<rect x="26.5918" y="5.25024" width="0.875021" height="0.875021" fill="#246F50"/>
<rect x="28.3428" y="7.00049" width="0.875021" height="0.875021" fill="#246F50"/>
<rect x="18.7178" y="10.5002" width="0.875021" height="0.875021" fill="#FCFBE9"/>
<rect x="18.7178" y="10.5002" width="0.875021" height="0.875021" fill="#FCFBE9"/>
<rect x="23.0928" y="13.125" width="0.875021" height="0.875021" fill="#FCFBE9"/>
<rect x="16.0918" y="13.125" width="0.875021" height="0.875021" fill="#FCFBE9"/>
<rect x="19.5928" y="14.8752" width="0.875021" height="0.875021" fill="#FCFBE9"/>
<rect x="21.3428" y="19.2502" width="0.875021" height="0.875021" fill="#FCFBE9"/>
<rect x="25.7178" y="14.0002" width="0.875021" height="0.875021" fill="#FCFBE9"/>
<rect x="22.2178" y="3.5" width="0.875021" height="0.875021" fill="#FCFBE9"/>
<rect x="17.8428" y="5.25024" width="0.875021" height="0.875021" fill="#FCFBE9"/>
<rect x="17.8428" y="25.375" width="0.875021" height="0.875021" fill="#FCFBE9"/>
<rect x="25.7178" y="26.2502" width="0.875021" height="0.875021" fill="#FCFBE9"/>
<rect x="14.3428" y="25.375" width="0.875021" height="0.875021" fill="#FCFBE9"/>
<rect x="14.3428" y="25.375" width="0.875021" height="0.875021" fill="#FCFBE9"/>
<rect x="21.3428" y="23.6252" width="0.875021" height="0.875021" fill="#FCFBE9"/>
<rect x="29.2178" y="25.375" width="0.875021" height="0.875021" fill="#FCFBE9"/>
<rect x="16.9678" y="20.125" width="0.875021" height="0.875021" fill="#FCFBE9"/>
<rect x="23.9678" y="16.6252" width="0.875021" height="0.875021" fill="#FCFBE9"/>
<rect x="26.5918" y="21.0002" width="0.875021" height="0.875021" fill="#FCFBE9"/>
<rect x="22.2178" y="8.75" width="0.875021" height="0.875021" fill="#FCFBE9"/>
<rect x="26.5918" y="6.12524" width="0.875021" height="0.875021" fill="#246F50"/>
<rect x="13.4678" y="7.00049" width="0.875021" height="0.875021" fill="#246F50"/>
<rect x="23.9678" y="7.875" width="0.875021" height="0.875021" fill="#246F50"/>
<rect x="24.8418" y="8.75" width="0.875021" height="0.875021" fill="#246F50"/>
<rect x="25.7178" y="9.62549" width="0.875021" height="0.875021" fill="#246F50"/>
<rect x="26.5918" y="10.5002" width="0.875021" height="0.875021" fill="#246F50"/>
<rect x="27.4678" y="11.3752" width="0.875021" height="0.875021" fill="#246F50"/>
<rect x="27.4678" y="12.2502" width="0.875021" height="0.875021" fill="#246F50"/>
<rect x="28.3428" y="12.2502" width="0.875021" height="0.875021" fill="#246F50"/>
<rect x="28.3428" y="13.125" width="0.875021" height="0.875021" fill="#246F50"/>
<rect x="29.2178" y="13.125" width="0.875021" height="0.875021" fill="#246F50"/>
<rect x="30.0938" y="14.0002" width="0.875021" height="0.875021" fill="#246F50"/>
<rect x="29.2178" y="14.0002" width="0.875021" height="0.875021" fill="#246F50"/>
<rect x="30.0938" y="14.8752" width="0.875021" height="0.875021" fill="#246F50"/>
<rect x="30.9688" y="15.75" width="0.875021" height="0.875021" fill="#246F50"/>
<rect x="17.8428" y="7.875" width="0.875021" height="0.875021" fill="#246F50"/>
<rect x="16.9678" y="8.75" width="0.875021" height="0.875021" fill="#246F50"/>
<rect x="16.0918" y="9.62524" width="0.875021" height="0.875021" fill="#246F50"/>
<rect x="15.2178" y="10.5002" width="0.875021" height="0.875021" fill="#246F50"/>
<rect x="13.4678" y="13.125" width="0.875021" height="0.875021" fill="#246F50"/>
<rect x="14.3428" y="11.3752" width="0.875021" height="0.875021" fill="#246F50"/>
<rect x="13.4678" y="12.2502" width="0.875021" height="0.875021" fill="#246F50"/>
<rect x="11.7168" y="14.0002" width="0.875021" height="0.875021" fill="#246F50"/>
<rect x="12.5928" y="13.125" width="0.875021" height="0.875021" fill="#246F50"/>
<rect x="12.5928" y="14.0002" width="0.875021" height="0.875021" fill="#246F50"/>
<rect x="11.7168" y="14.8752" width="0.875021" height="0.875021" fill="#246F50"/>
<rect x="10.8428" y="15.75" width="0.875021" height="0.875021" fill="#246F50"/>
<rect x="36.2178" y="28.875" width="0.875021" height="0.875021" fill="#246F50"/>
<rect x="15.2178" y="17.5002" width="0.875021" height="0.875021" fill="#246F50"/>
<rect x="15.2178" y="18.375" width="0.875021" height="0.875021" fill="#246F50"/>
<rect x="14.3428" y="18.375" width="0.875021" height="0.875021" fill="#246F50"/>
<rect x="14.3428" y="19.2502" width="0.875021" height="0.875021" fill="#246F50"/>
<rect x="13.4678" y="20.125" width="0.875021" height="0.875021" fill="#246F50"/>
<rect x="12.5928" y="21.0002" width="0.875021" height="0.875021" fill="#246F50"/>
<rect x="11.7168" y="21.8752" width="0.875021" height="0.875021" fill="#246F50"/>
<rect x="11.7168" y="22.75" width="0.875021" height="0.875021" fill="#246F50"/>
<rect x="10.8428" y="22.75" width="0.875021" height="0.875021" fill="#246F50"/>
<rect x="10.8428" y="23.6252" width="0.875021" height="0.875021" fill="#246F50"/>
<rect x="9.96777" y="23.6252" width="0.875021" height="0.875021" fill="#246F50"/>
<rect x="9.96777" y="24.5" width="0.875021" height="0.875021" fill="#246F50"/>
<rect x="9.09277" y="24.5" width="0.875021" height="0.875021" fill="#246F50"/>
<rect x="9.09277" y="25.375" width="0.875021" height="0.875021" fill="#246F50"/>
<rect x="8.21777" y="26.2502" width="0.875021" height="0.875021" fill="#246F50"/>
<rect x="8.21777" y="25.375" width="0.875021" height="0.875021" fill="#246F50"/>
<rect x="7.34277" y="28" width="0.875021" height="0.875021" fill="#246F50"/>
<rect x="7.34277" y="27.125" width="0.875021" height="0.875021" fill="#246F50"/>
<rect x="6.46777" y="28" width="0.875021" height="0.875021" fill="#246F50"/>
<rect x="6.46777" y="28.875" width="0.875021" height="0.875021" fill="#246F50"/>
<rect x="34.4678" y="27.125" width="0.875021" height="0.875021" fill="#246F50"/>
<rect x="33.5918" y="27.125" width="0.875021" height="0.875021" fill="#246F50"/>
<rect x="34.4678" y="28.875" width="0.875021" height="0.875021" fill="#246F50"/>
<rect x="26.5918" y="17.5002" width="0.875021" height="0.875021" fill="#246F50"/>
<rect x="25.7178" y="17.5002" width="0.875021" height="0.875021" fill="#246F50"/>
<rect x="26.5918" y="18.375" width="0.875021" height="0.875021" fill="#246F50"/>
<rect x="27.4678" y="18.375" width="0.875021" height="0.875021" fill="#246F50"/>
<rect x="27.4678" y="19.2502" width="0.875021" height="0.875021" fill="#246F50"/>
<rect x="28.3428" y="19.2502" width="0.875021" height="0.875021" fill="#246F50"/>
<rect x="28.3428" y="20.125" width="0.875021" height="0.875021" fill="#246F50"/>
<rect x="29.2178" y="20.125" width="0.875021" height="0.875021" fill="#246F50"/>
<rect x="29.2178" y="21.0002" width="0.875021" height="0.875021" fill="#246F50"/>
<rect x="30.0938" y="21.8752" width="0.875021" height="0.875021" fill="#246F50"/>
<rect x="30.9688" y="22.75" width="0.875021" height="0.875021" fill="#246F50"/>
<rect x="31.8428" y="23.6252" width="0.875021" height="0.875021" fill="#246F50"/>
<rect x="34.4678" y="28.875" width="0.875021" height="0.875021" fill="#246F50"/>
<rect x="29.2178" y="21.8752" width="0.875021" height="0.875021" fill="#246F50"/>
<rect x="30.0938" y="22.75" width="0.875021" height="0.875021" fill="#246F50"/>
<rect x="30.9688" y="24.5" width="0.875021" height="0.875021" fill="#246F50"/>
<rect x="31.8428" y="25.375" width="0.875021" height="0.875021" fill="#246F50"/>
<rect x="32.7178" y="26.2502" width="0.875021" height="0.875021" fill="#246F50"/>
<rect x="30.9688" y="23.6252" width="0.875021" height="0.875021" fill="#246F50"/>
<rect x="31.8428" y="24.5" width="0.875021" height="0.875021" fill="#246F50"/>
<rect x="32.7178" y="25.375" width="0.875021" height="0.875021" fill="#246F50"/>
<rect x="33.5918" y="26.2502" width="0.875021" height="0.875021" fill="#246F50"/>
<rect x="34.4678" y="28" width="0.875021" height="0.875021" fill="#246F50"/>
<rect x="35.3418" y="28" width="0.875021" height="0.875021" fill="#246F50"/>
<rect x="35.3418" y="28.875" width="0.875021" height="0.875021" fill="#246F50"/>
<path fill-rule="evenodd" clip-rule="evenodd" d="M24.6382 12.9977H23.8838V13.7521H24.6382V12.9977ZM25.3934 13.7525H23.8847V14.506H23.125V15.2604H25.3881V14.5069H25.3934V13.7525ZM26.1452 15.2607H23.1277V16.0151H26.1452V15.2607ZM23.129 16.0152H26.9008V16.7692H29.9167V16.0159H30.671V15.2617H33.6885V16.0159V16.0161V16.7692H33.69V16.7703H33.6914V17.5244V17.5246V18.2788H33.69V18.2791H34.4443V19.0325V19.0334V19.7868H33.69V19.7871H35.1982V28.0851H22.374V26.5759H21.6211V20.541H22.3732V19.7867H23.129V19.7863H22.3732V19.0319H22.374V18.2785H23.129V17.5246L23.129 17.5238H23.1277V16.7695H23.129L23.129 16.7692L23.129 16.0152ZM35.1982 20.541H35.9526V22.804H36.7065V25.067H35.9526V26.5759H35.1982V20.541ZM32.9355 12.998H32.1812V13.7524H32.9355V12.998ZM32.9355 14.5068H33.6885V15.2612H31.4254V14.5068H31.4268V13.7529H32.9355V14.5068Z" fill="#212121"/>
<path fill-rule="evenodd" clip-rule="evenodd" d="M30.6716 20.5417H29.1629V22.0505H30.6716V20.5417ZM26.9003 20.5419H25.3916V22.0506H26.9003V20.5419Z" fill="white"/>
<path d="M0 30.5994H8.44828V43.8752H0L2.81609 37.2373L0 30.5994Z" fill="#B22727"/>
<path d="M33.793 30.5994H42.2412L39.4252 37.2373L42.2412 43.8752H33.793V30.5994Z" fill="#B22727"/>
<path d="M8.44868 43.8752V39.0476L3.62109 36.6338V41.4614L8.44868 43.8752Z" fill="#732D2D"/>
<path d="M33.7935 43.8752V39.0476L38.6211 36.6338V41.4614L33.7935 43.8752Z" fill="#732D2D"/>
<path d="M3.62109 28.1856C3.62109 28.1856 10.259 26.3752 21.1211 26.3752C31.9832 26.3752 38.6211 28.1856 38.6211 28.1856V41.4615C38.6211 41.4615 30.7763 39.6511 21.1211 39.6511C11.4659 39.6511 3.62109 41.4615 3.62109 41.4615V28.1856Z" fill="#D53B3B"/>
<path d="M8.08838 33.5797C8.22313 33.4312 8.37576 33.3184 8.54627 33.2414C8.71677 33.1617 8.89691 33.1218 9.08666 33.1218C9.23242 33.1218 9.3713 33.1411 9.5033 33.1796C9.6353 33.2153 9.81269 33.2744 10.0354 33.357C10.2362 33.434 10.4053 33.4931 10.5428 33.5343C10.6831 33.5728 10.8261 33.5921 10.9718 33.5921C11.1644 33.5921 11.3431 33.5522 11.5081 33.4725C11.6759 33.39 11.823 33.2717 11.9495 33.1177V34.017C11.8148 34.1655 11.6621 34.2796 11.4916 34.3594C11.3239 34.4364 11.1437 34.4749 10.9512 34.4749C10.8082 34.4749 10.6666 34.4556 10.5263 34.4171C10.3861 34.3759 10.2114 34.3167 10.0024 34.2397C9.80719 34.16 9.63805 34.1008 9.49505 34.0623C9.3548 34.0238 9.21042 34.0046 9.06191 34.0046C8.87215 34.0046 8.69477 34.0445 8.52977 34.1242C8.36751 34.204 8.22038 34.3222 8.08838 34.479V33.5797ZM15.4932 36.7891H14.4124V31.8637H14.3794L12.981 32.7588V31.7729L14.4619 30.8159H15.4932V36.7891ZM16.7762 36.0094L18.8842 33.9798C19.1152 33.7488 19.2939 33.5605 19.4205 33.4147C19.547 33.2662 19.6432 33.1191 19.7092 32.9733C19.7752 32.8276 19.8082 32.6736 19.8082 32.5113C19.8082 32.3325 19.7628 32.1744 19.6721 32.0369C19.5813 31.8994 19.459 31.7935 19.3049 31.7193C19.1509 31.6423 18.9749 31.6038 18.7769 31.6038C18.5789 31.6038 18.4029 31.645 18.2489 31.7275C18.0949 31.8073 17.9767 31.9228 17.8942 32.074C17.8117 32.2253 17.7704 32.3999 17.7704 32.5979H16.7515C16.7515 32.2267 16.8381 31.9008 17.0114 31.6203C17.1846 31.337 17.4253 31.1184 17.7333 30.9644C18.044 30.8104 18.3974 30.7334 18.7934 30.7334C19.1949 30.7334 19.5497 30.8076 19.8577 30.9561C20.1657 31.1046 20.405 31.3095 20.5755 31.5708C20.7487 31.832 20.8354 32.129 20.8354 32.4618C20.8354 32.6928 20.7914 32.9156 20.7034 33.1301C20.6154 33.3446 20.4641 33.5811 20.2496 33.8396C20.0378 34.0981 19.734 34.4144 19.338 34.7884L18.2737 35.8444V35.8898H20.9261V36.7891H16.7804L16.7762 36.0094ZM22.3577 36.8551C22.2422 36.8551 22.135 36.8262 22.036 36.7684C21.937 36.7079 21.8586 36.6296 21.8008 36.5333C21.7458 36.4343 21.7183 36.327 21.7183 36.2115C21.7183 36.0988 21.7458 35.9943 21.8008 35.898C21.8586 35.799 21.937 35.722 22.036 35.667C22.135 35.6093 22.2422 35.5804 22.3577 35.5804C22.4677 35.5804 22.5722 35.6093 22.6712 35.667C22.7702 35.722 22.8486 35.799 22.9064 35.898C22.9641 35.9943 22.993 36.0988 22.993 36.2115C22.993 36.327 22.9641 36.4343 22.9064 36.5333C22.8486 36.6296 22.7702 36.7079 22.6712 36.7684C22.5722 36.8262 22.4677 36.8551 22.3577 36.8551ZM25.8024 36.8716C25.3816 36.8716 25.0048 36.8001 24.6721 36.6571C24.3393 36.5141 24.0781 36.3133 23.8883 36.0548C23.7013 35.7935 23.6023 35.4979 23.5913 35.1679H24.6762C24.6872 35.3219 24.7422 35.4594 24.8412 35.5804C24.9402 35.7014 25.0736 35.7963 25.2413 35.865C25.4091 35.931 25.5947 35.964 25.7982 35.964C26.0155 35.964 26.2108 35.9269 26.384 35.8527C26.56 35.7757 26.6961 35.6712 26.7924 35.5391C26.8887 35.4044 26.9354 35.2504 26.9327 35.0771C26.9354 34.8929 26.8873 34.732 26.7883 34.5945C26.692 34.4542 26.549 34.3456 26.3593 34.2686C26.1723 34.1889 25.9509 34.149 25.6951 34.149H25.163V33.3198H25.6951C25.9069 33.3198 26.0939 33.2841 26.2561 33.2126C26.4211 33.1383 26.5476 33.0352 26.6356 32.9032C26.7264 32.7712 26.7718 32.6199 26.7718 32.4494C26.7718 32.2817 26.7319 32.1345 26.6521 32.008C26.5751 31.8788 26.4638 31.7798 26.318 31.711C26.175 31.6395 26.0072 31.6038 25.8147 31.6038C25.6277 31.6038 25.4531 31.6381 25.2909 31.7069C25.1313 31.7729 25.0021 31.8678 24.9031 31.9915C24.8068 32.1125 24.7546 32.2569 24.7463 32.4247H23.7109C23.7247 32.0947 23.8237 31.8018 24.0079 31.546C24.1949 31.2903 24.4466 31.0909 24.7628 30.9479C25.0791 30.8049 25.4311 30.7334 25.8189 30.7334C26.2149 30.7334 26.5628 30.8062 26.8625 30.952C27.165 31.0978 27.3988 31.2971 27.5638 31.5501C27.7316 31.8004 27.8127 32.0795 27.8072 32.3875C27.8127 32.6048 27.7701 32.8042 27.6793 32.9857C27.5886 33.1644 27.4593 33.3129 27.2915 33.4312C27.1238 33.5495 26.9313 33.632 26.714 33.6787V33.7241C26.9945 33.7598 27.2338 33.8423 27.4318 33.9716C27.6298 34.0981 27.7811 34.2604 27.8856 34.4584C27.9901 34.6536 28.0396 34.8778 28.0341 35.1308C28.0396 35.458 27.9447 35.755 27.7494 36.0218C27.5569 36.2858 27.2902 36.4934 26.9492 36.6447C26.6109 36.7959 26.2286 36.8716 25.8024 36.8716ZM31.2271 36.7891H30.1463V31.8637H30.1133L28.7149 32.7588V31.7729L30.1958 30.8159H31.2271V36.7891Z" fill="white"/>
</svg>
