<svg width="148" height="42" viewBox="0 0 148 42" fill="none" xmlns="http://www.w3.org/2000/svg">
<mask id="path-1-inside-1_3183_41866" fill="white">
<path fill-rule="evenodd" clip-rule="evenodd" d="M2 0H72H146H148V39H146V42H76H2H0V3H2V0Z"/>
</mask>
<path d="M2 0V-1H1V0H2ZM148 0H149V-1H148V0ZM148 39V40H149V39H148ZM146 39V38H145V39H146ZM146 42V43H147V42H146ZM0 42H-1V43H0V42ZM0 3V2H-1V3H0ZM2 3V4H3V3H2ZM72 -1H2V1H72V-1ZM72 1H146V-1H72V1ZM146 1H148V-1H146V1ZM147 0V39H149V0H147ZM148 38H146V40H148V38ZM147 42V39H145V42H147ZM76 43H146V41H76V43ZM2 43H76V41H2V43ZM0 43H2V41H0V43ZM-1 3V42H1V3H-1ZM2 2H0V4H2V2ZM1 0V3H3V0H1Z" fill="#6CD8ED" mask="url(#path-1-inside-1_3183_41866)"/>
</svg>
