<svg width="24" height="24" viewBox="0 0 24 24" fill="none" xmlns="http://www.w3.org/2000/svg">
<path fill-rule="evenodd" clip-rule="evenodd" d="M8.5 0.5V0H15.5V0.5H17V1H18V1.5H18.5V2H19.5V2.5H20V3H20.5V3.5H21V4H21.5V4.5H22V5.5H22.5V6H23V7H23.5V8.5H24V15.5H23.5V17H23V18H22.5V18.5H22V19.5H21.5V20H21V20.5H20.5V21H20V21.5H19.5V22H18.5V22.5H18V23H17V23.5H15.5V24H8.5V23.5H7V23H6V22.5H5.5V22H4.5V21.5H4V21H3.5V20.5H3V20H2.5V19.5H2V18.5H1.5V18H1V17H0.5V15.5H0V8.5H0.5V7H1V6H1.5V5.5H2V4.5H2.5V4H3V3.5H3.5V3H4V2.5H4.5V2H5.5V1.5H6V1H7V0.5H8.5ZM23 15.2083H22.5417V16.5833H22.0833V17.5H21.625V17.9583H21.1667V18.875H20.7083V19.3333H20.25V19.7917H19.7917V20.25H19.3333V20.7083H18.875V21.1667H17.9583V21.625H17.5V22.0833H16.5833V22.5417H15.2083V23H8.79167V22.5417H7.41667V22.0833H6.5V21.625H6.04167V21.1667H5.125V20.7083H4.66667V20.25H4.20833V19.7917H3.75V19.3333H3.29167V18.875H2.83333V17.9583H2.375V17.5H1.91667V16.5833H1.45833V15.2083H1V8.79167H1.45833V7.41667H1.91667V6.5H2.375V6.04167H2.83333V5.125H3.29167V4.66667H3.75V4.20833H4.20833V3.75H4.66667V3.29167H5.125V2.83333H6.04167V2.375H6.5V1.91667H7.41667V1.45833H8.79167V1H15.2083V1.45833H16.5833V1.91667H17.5V2.375H17.9583V2.83333H18.875V3.29167H19.3333V3.75H19.7917V4.20833H20.25V4.66667H20.7083V5.125H21.1667V6.04167H21.625V6.5H22.0833V7.41667H22.5417V8.79167H23V15.2083Z" fill="#6CD8ED"/>
<mask id="mask0_1867_31724" style="mask-type:alpha" maskUnits="userSpaceOnUse" x="1" y="1" width="22" height="22">
<path fill-rule="evenodd" clip-rule="evenodd" d="M23 15.2083H22.5417V16.5833H22.0833V17.5H21.625V17.9583H21.1667V18.875H20.7083V19.3333H20.25V19.7917H19.7917V20.25H19.3333V20.7083H18.875V21.1667H17.9583V21.625H17.5V22.0833H16.5833V22.5417H15.2083V23H8.79167V22.5417H7.41667V22.0833H6.5V21.625H6.04167V21.1667H5.125V20.7083H4.66667V20.25H4.20833V19.7917H3.75V19.3333H3.29167V18.875H2.83333V17.9583H2.375V17.5H1.91667V16.5833H1.45833V15.2083H1V8.79167H1.45833V7.41667H1.91667V6.5H2.375V6.04167H2.83333V5.125H3.29167V4.66667H3.75V4.20833H4.20833V3.75H4.66667V3.29167H5.125V2.83333H6.04167V2.375H6.5V1.91667H7.41667V1.45833H8.79167V1H15.2083V1.45833H16.5833V1.91667H17.5V2.375H17.9583V2.83333H18.875V3.29167H19.3333V3.75H19.7917V4.20833H20.25V4.66667H20.7083V5.125H21.1667V6.04167H21.625V6.5H22.0833V7.41667H22.5417V8.79167H23V15.2083Z" fill="#6CD8ED"/>
</mask>
<g mask="url(#mask0_1867_31724)">
<path fill-rule="evenodd" clip-rule="evenodd" d="M8.24202 6H8.82269V6.58008H9.40337V7.16075H8.24203V6.58067H8.24202V6ZM9.40335 7.16211H7.66134V7.74219V7.74278V8.32286H9.98402V7.74219H9.40335V7.16211ZM10.5647 8.32422H7.66134V8.90234V8.90489V9.48301H7.66135V9.48438H7.66134V10.0646H7.08067V10.6452H7.08068V11.2252H7.66135V11.2266H7.08068V11.8072H7.08069V17.6159H8.49997L8.49997 19H7.95184L7.95184 20.1621H6.5L6.5 50.357H8.82268V50H9.95183H14.5H15.5H15.6291V50.3555H11.5653H10.4029H9.82327V50.9361H10.4029V51.5168H17.9516V50.357H17.9518L17.9518 20.1621H16.5V19H15.5L15.5 17.6159H16.9521V16.452H17.5327V11.8066H16.9521V11.2285H16.3714V11.2266H15.7907V11.2252H16.3714V10.6445L16.3714 10.0646H15.7907L15.7907 8.9043L15.7907 8.90234V8.32422H12.8874V8.90234V8.9043H10.5647V8.90234V8.32422ZM15.2101 6H14.6294V6.58008H14.0487V7.16075H15.2101L15.2101 6.58008V6ZM14.0487 7.16211H15.7907V7.74219V7.74278V8.32286H13.468V7.74219H14.0487V7.16211ZM7.08067 11.8066H6.5V16.452H7.08067V11.8066Z" fill="#7CED43"/>
<path fill-rule="evenodd" clip-rule="evenodd" d="M10.5647 11.8086H9.40335V12.9699H10.5647V11.8086ZM13.4681 11.8086H12.3067V12.9699H13.4681V11.8086Z" fill="#FF43A8"/>
</g>
</svg>
