<svg width="42" height="42" viewBox="0 0 42 42" fill="none" xmlns="http://www.w3.org/2000/svg">
<path d="M37.8175 12.11V11.3575H37.065V10.5875H36.295V9.835H35.5425V9.065H34.7725V8.295H34.0025V6.02H33.25V5.25H31.7275V6.02H30.9575V9.065H31.7275V9.8175H32.48V10.5875H33.25V11.3575H34.0025V12.11H34.7725V12.88H35.5425V13.6325V14.4025H34.7725V15.155H34.0025V15.925H31.7275V16.695H17.99V14.4025H17.2375V13.6325H16.4675V12.88V12.11H15.6975V11.34V11.2525V10.5875V9.8175V9.065V8.295H14.945V7.7525V7.5425V6.7725H14.175V7.5425H13.4225V8.295V9.065H12.6525V9.8175H11.8825V10.5875H8.8375V9.8175H8.085V9.065H7.315V8.295V7.5425H6.545V6.7725H5.7925V7.5425V7.7525V8.295H5.0225V9.065V9.8175V10.5875V11.2525V12.11H4.27V12.88V13.6325V14.4025H3.5V20.4925H4.27V22.0325H5.0225V25.8475H5.7925V27.37H6.545V30.415V33.4775H7.315V34.23H8.8375V33.4775H9.6075V30.415H12.6525V35H13.4225V35.7525H14.945V35H15.6975V30.415H21.805V34.23H22.575V35H24.0975V34.23H24.85V30.415H28.665V31.185H30.1875V35.7525H30.9575V36.5225H32.48V35.7525H33.25V31.185V30.415V20.51H32.48V19.74H31.7275V18.9875H34.0025V18.2175H35.5425V17.4475H37.065V16.695H37.8175V15.925H38.5875V14.4025V13.6325V12.11H37.8175Z" fill="#FDFFB0"/>
<path fill-rule="evenodd" clip-rule="evenodd" d="M8.83893 14.3992H7.31348V15.9246H8.83893V14.3992ZM12.6526 14.3992H11.1271V15.9246H12.6526V14.3992Z" fill="#212121"/>
</svg>
