<svg width="42" height="42" viewBox="0 0 42 42" fill="none" xmlns="http://www.w3.org/2000/svg">
<path fill-rule="evenodd" clip-rule="evenodd" d="M33.2463 5.25H31.7208V6.01347H30.9581V9.06437H31.7208V9.82551H32.4836V10.589H33.2462V11.3525H34.009V12.1159H34.7717V12.8756H35.5345V13.6405V14.4018V14.404H34.7717V15.1637H34.009V15.9271H31.7208V16.6878H17.9918V14.398H17.2291V16.6878H17.2291V13.6345H16.4665V12.875V12.872V12.1123H15.7037V12.1116H15.7037V11.3488H15.7037V11.3481H15.7037V10.5854H15.7037V10.5846H15.7037V9.8219H11.8901V10.5844H8.83915V9.8219H5.02552V10.5844H5.02551V12.1123H4.26277V12.872V12.875V13.6345H4.26275V22.0245H5.02551V22.0253H5.02554V25.8405H28.67V25.8419H5.78817V27.3673H6.55093V30.4159H6.55094V33.4704H7.31369V34.233H8.83914V33.4704H9.60184V30.4159H12.6527V34.9956H13.4155V35.7583H14.9409V34.9956H15.7036V30.4159H21.8054V34.2309H22.5682V34.9935H24.0936V34.2309H24.8563V30.4159H28.67V31.183H30.1954V35.76H30.9581V36.5227H32.4836V35.76H33.2463V31.183H33.2463L33.2463 30.4168V20.5014H32.4836V19.7379H31.7209V18.9788H34.0089V18.2153H35.5344V17.4518H37.0599V16.6922H37.8226V15.9287H38.5854V14.4018V13.6405V12.1136H37.8226V11.3501H37.0599V10.5905H36.2971V9.827H35.5345V9.06353H34.7717V8.30006H34.009V6.01347H33.2463V5.25ZM6.551 6.77183H5.78828V7.53456H6.551V6.77183ZM7.31373 8.29803V7.5353H5.78828V8.29803H7.31373ZM5.02552 8.29877H7.3137V9.05842H8.07642V9.82115H5.02552V9.0615V9.05842V8.29877ZM14.1782 6.77183H14.941V7.53456H14.1782V6.77183ZM13.4155 7.5353H14.941V8.29803H13.4155V7.5353ZM15.7037 8.29877H13.4156V9.05842H12.6528V9.82115H15.7037V9.0615V9.05842V8.29877ZM3.5 14.398H4.26273V20.4998H3.5V14.398Z" fill="#FDFFB0"/>
<path fill-rule="evenodd" clip-rule="evenodd" d="M8.83893 14.3992H7.31348V15.9246H8.83893V14.3992ZM12.6526 14.3992H11.1271V15.9246H12.6526V14.3992Z" fill="#212121"/>
</svg>
