<svg width="43" height="44" viewBox="0 0 43 44" fill="none" xmlns="http://www.w3.org/2000/svg">
<path fill-rule="evenodd" clip-rule="evenodd" d="M14.3789 7H13.3789V8V9V10V11V12V13V14H12.3789V15V16V17H11.3789V25H12.3789V27H13.3789H27.3789H29.3789V25H30.3789V23H31.3789V20H30.3789V17H29.3789V16H28.3789V15V14H27.3789V13V12V11V10V9V8V7H26.3789V8H25.3789V9H23.3789V10V11H22.3789V12H18.3789V11H17.3789V10H16.3789V9H15.3789V8H14.3789V7Z" fill="#212121"/>
<path fill-rule="evenodd" clip-rule="evenodd" d="M18.3789 17H16.3789V19H18.3789V17ZM23.3789 17H21.3789V19H23.3789V17Z" fill="white"/>
<rect x="16.3789" y="11" width="1" height="1" fill="white"/>
<rect x="17.3789" y="11" width="1" height="1" fill="white"/>
<rect x="16.3789" y="9" width="1" height="1" fill="#E00D0D"/>
<rect x="17.3789" y="9" width="1" height="1" fill="#E00D0D"/>
<rect x="17.3789" y="9" width="1" height="1" fill="#E00D0D"/>
<rect x="17.3789" y="8" width="1" height="1" fill="#E00D0D"/>
<rect x="23.3789" y="5" width="1" height="1" fill="#E00D0D"/>
<rect x="22.3789" y="4" width="1" height="1" fill="#E00D0D"/>
<rect x="22.3789" y="5" width="1" height="1" fill="#E00D0D"/>
<rect x="21.3789" y="5" width="1" height="1" fill="#E00D0D"/>
<rect x="23.3789" y="9" width="1" height="1" fill="#E00D0D"/>
<rect x="22.3789" y="9" width="1" height="1" fill="#E00D0D"/>
<rect x="21.3789" y="9" width="1" height="1" fill="#E00D0D"/>
<rect x="23.3789" y="10" width="1" height="1" fill="#E00D0D"/>
<rect x="23.3789" y="10" width="1" height="1" fill="white"/>
<rect x="22.3789" y="10" width="1" height="1" fill="white"/>
<rect x="21.3789" y="10" width="1" height="1" fill="white"/>
<rect x="20.3789" y="9" width="1" height="1" fill="#E00D0D"/>
<rect x="19.3789" y="9" width="1" height="1" fill="#E00D0D"/>
<rect x="18.3789" y="9" width="1" height="1" fill="#E00D0D"/>
<rect x="16.3789" y="8" width="1" height="1" fill="#E00D0D"/>
<rect x="19.3789" y="8" width="1" height="1" fill="#E00D0D"/>
<rect x="18.3789" y="8" width="1" height="1" fill="#E00D0D"/>
<rect x="22.3789" y="6" width="1" height="1" fill="#E00D0D"/>
<rect x="20.3789" y="6" width="1" height="1" fill="#E00D0D"/>
<rect x="21.3789" y="6" width="1" height="1" fill="#E00D0D"/>
<rect x="21.3789" y="6" width="1" height="1" fill="#E00D0D"/>
<rect x="23.3789" y="6" width="1" height="1" fill="#E00D0D"/>
<rect x="22.3789" y="7" width="1" height="1" fill="#E00D0D"/>
<rect x="20.3789" y="7" width="1" height="1" fill="#E00D0D"/>
<rect x="21.3789" y="7" width="1" height="1" fill="#E00D0D"/>
<rect x="21.3789" y="7" width="1" height="1" fill="#E00D0D"/>
<rect x="23.3789" y="7" width="1" height="1" fill="#E00D0D"/>
<rect x="22.3789" y="8" width="1" height="1" fill="#E00D0D"/>
<rect x="20.3789" y="8" width="1" height="1" fill="#E00D0D"/>
<rect x="21.3789" y="8" width="1" height="1" fill="#E00D0D"/>
<rect x="21.3789" y="8" width="1" height="1" fill="#E00D0D"/>
<rect x="23.3789" y="8" width="1" height="1" fill="#E00D0D"/>
<rect x="17.3789" y="7" width="1" height="1" fill="#E00D0D"/>
<rect x="16.3789" y="7" width="1" height="1" fill="#E00D0D"/>
<rect x="19.3789" y="7" width="1" height="1" fill="#E00D0D"/>
<rect x="18.3789" y="7" width="1" height="1" fill="#E00D0D"/>
<rect x="19.3789" y="6" width="1" height="1" fill="#E00D0D"/>
<rect x="18.3789" y="6" width="1" height="1" fill="#E00D0D"/>
<rect x="17.3789" y="6" width="1" height="1" fill="#E00D0D"/>
<rect x="17.3789" y="5" width="1" height="1" fill="#E00D0D"/>
<rect x="20.3789" y="5" width="1" height="1" fill="#E00D0D"/>
<rect x="19.3789" y="5" width="1" height="1" fill="#E00D0D"/>
<rect x="18.3789" y="5" width="1" height="1" fill="#E00D0D"/>
<rect x="18.3789" y="4" width="1" height="1" fill="#E00D0D"/>
<rect x="18.3789" y="4" width="1" height="1" fill="#E00D0D"/>
<rect x="21.3789" y="4" width="1" height="1" fill="#E00D0D"/>
<rect x="20.3789" y="4" width="1" height="1" fill="#E00D0D"/>
<rect x="19.3789" y="4" width="1" height="1" fill="#E00D0D"/>
<rect x="19.3789" y="3" width="1" height="1" fill="#E00D0D"/>
<rect x="19.3789" y="3" width="1" height="1" fill="#E00D0D"/>
<rect x="22.3789" y="3" width="1" height="1" fill="#E00D0D"/>
<rect x="21.3789" y="3" width="1" height="1" fill="#E00D0D"/>
<rect x="20.3789" y="3" width="1" height="1" fill="#E00D0D"/>
<rect x="16.3789" y="10" width="1" height="1" fill="white"/>
<rect x="17.3789" y="10" width="1" height="1" fill="#E00D0D"/>
<rect x="17.3789" y="10" width="1" height="1" fill="white"/>
<rect x="20.3789" y="10" width="1" height="1" fill="white"/>
<rect x="19.3789" y="10" width="1" height="1" fill="white"/>
<rect x="18.3789" y="10" width="1" height="1" fill="white"/>
<rect x="18.3789" y="11" width="1" height="1" fill="white"/>
<rect x="19.3789" y="11" width="1" height="1" fill="white"/>
<rect x="20.3789" y="11" width="1" height="1" fill="white"/>
<rect x="21.3789" y="11" width="1" height="1" fill="white"/>
<rect x="22.3789" y="11" width="1" height="1" fill="white"/>
<rect x="21.3789" y="2" width="1" height="1" fill="white"/>
<rect x="22.3789" width="1" height="1" fill="white"/>
<rect x="23.3789" width="1" height="1" fill="white"/>
<rect x="23.3789" y="1" width="1" height="1" fill="white"/>
<rect x="22.3789" y="1" width="1" height="1" fill="white"/>
<rect x="21.3789" y="1" width="1" height="1" fill="white"/>
<rect x="20.3789" y="1" width="1" height="1" fill="white"/>
<rect x="21.3789" width="1" height="1" fill="white"/>
<rect x="20.3789" y="2" width="1" height="1" fill="white"/>
<rect x="22.3789" y="2" width="1" height="1" fill="white"/>
<rect x="23.3789" y="11" width="1" height="1" fill="white"/>
<path d="M0.378906 30.2241H8.82718V43.5H0.378906L3.195 36.8621L0.378906 30.2241Z" fill="#B22727"/>
<path d="M34.1719 30.2241H42.6202L39.8041 36.8621L42.6202 43.5H34.1719V30.2241Z" fill="#B22727"/>
<path d="M8.82777 43.4999V38.6723L4.00018 36.2585V41.0861L8.82777 43.4999Z" fill="#732D2D"/>
<path d="M34.1726 43.4999V38.6723L39.0002 36.2585V41.0861L34.1726 43.4999Z" fill="#732D2D"/>
<path d="M4.00018 27.8103C4.00018 27.8103 10.6381 26 21.5002 26C32.3623 26 39.0002 27.8103 39.0002 27.8103V41.0862C39.0002 41.0862 31.1554 39.2759 21.5002 39.2759C11.845 39.2759 4.00018 41.0862 4.00018 41.0862V27.8103Z" fill="#D53B3B"/>
<path d="M8.61416 29.4646H9.56436L10.4633 33.1082H10.5077L11.4613 29.4646H12.3397L13.2968 33.1116H13.3378L14.2333 29.4646H15.1869L13.7958 34.4138H12.9105L11.9228 30.9309H11.8817L10.8905 34.4138H10.0087L8.61416 29.4646ZM16.5064 34.4138H15.6177V29.4646H16.5064V34.4138ZM21.3532 34.4138H20.5637L18.2223 31.0334H18.1779V34.4138H17.2892V29.4646H18.089L20.4235 32.8484H20.4679V29.4646H21.3532V34.4138ZM21.9105 29.4646H25.8582V30.2131H24.3304V34.4138H23.4451V30.2131H21.9105V29.4646ZM26.4223 29.4646H29.6386V30.2131H27.311V31.5667H29.4712V32.3083H27.311V33.6653H29.6523V34.4138H26.4223V29.4646ZM30.3497 29.4646H32.2022C32.5759 29.4646 32.8938 29.5295 33.1559 29.6594C33.4179 29.7893 33.615 29.9739 33.7472 30.2131C33.8816 30.4524 33.9488 30.7304 33.9488 31.0471C33.9488 31.3639 33.8816 31.6384 33.7472 31.8708C33.6127 32.1033 33.4133 32.2833 33.149 32.4109C32.8847 32.5385 32.5646 32.6023 32.1886 32.6023H30.8624V31.8572H32.0689C32.2945 31.8572 32.478 31.8264 32.6192 31.7649C32.7605 31.7011 32.8653 31.6099 32.9337 31.4915C33.0043 31.373 33.0396 31.2249 33.0396 31.0471C33.0396 30.8671 33.0043 30.7156 32.9337 30.5925C32.8653 30.4672 32.7594 30.3726 32.6158 30.3088C32.4723 30.2428 32.2888 30.2097 32.0655 30.2097H31.2384V34.4138H30.3497V29.4646ZM34.1266 34.4138H33.1285L31.9288 32.175H32.9029L34.1266 34.4138Z" fill="white"/>
</svg>
