<svg width="43" height="44" viewBox="0 0 43 44" fill="none" xmlns="http://www.w3.org/2000/svg">
<path fill-rule="evenodd" clip-rule="evenodd" d="M14 7H13V8V9V10V11V12V13V14H12V15V16V17H11V25H12V27H13H27H29V25H30V23H31V20H30V17H29V16H28V15V14H27V13V12V11V10V9V8V7H26V8H25V9H23V10V11H22V12H18V11H17V10H16V9H15V8H14V7Z" fill="#212121"/>
<path fill-rule="evenodd" clip-rule="evenodd" d="M18 17H16V19H18V17ZM23 17H21V19H23V17Z" fill="white"/>
<rect x="16" y="11" width="1" height="1" fill="white"/>
<rect x="17" y="11" width="1" height="1" fill="white"/>
<rect x="16" y="9" width="1" height="1" fill="#E00D0D"/>
<rect x="17" y="9" width="1" height="1" fill="#E00D0D"/>
<rect x="17" y="9" width="1" height="1" fill="#E00D0D"/>
<rect x="17" y="8" width="1" height="1" fill="#E00D0D"/>
<rect x="23" y="5" width="1" height="1" fill="#E00D0D"/>
<rect x="22" y="4" width="1" height="1" fill="#E00D0D"/>
<rect x="22" y="5" width="1" height="1" fill="#E00D0D"/>
<rect x="21" y="5" width="1" height="1" fill="#E00D0D"/>
<rect x="23" y="9" width="1" height="1" fill="#E00D0D"/>
<rect x="22" y="9" width="1" height="1" fill="#E00D0D"/>
<rect x="21" y="9" width="1" height="1" fill="#E00D0D"/>
<rect x="23" y="10" width="1" height="1" fill="#E00D0D"/>
<rect x="23" y="10" width="1" height="1" fill="white"/>
<rect x="22" y="10" width="1" height="1" fill="white"/>
<rect x="21" y="10" width="1" height="1" fill="white"/>
<rect x="20" y="9" width="1" height="1" fill="#E00D0D"/>
<rect x="19" y="9" width="1" height="1" fill="#E00D0D"/>
<rect x="18" y="9" width="1" height="1" fill="#E00D0D"/>
<rect x="16" y="8" width="1" height="1" fill="#E00D0D"/>
<rect x="19" y="8" width="1" height="1" fill="#E00D0D"/>
<rect x="18" y="8" width="1" height="1" fill="#E00D0D"/>
<rect x="22" y="6" width="1" height="1" fill="#E00D0D"/>
<rect x="20" y="6" width="1" height="1" fill="#E00D0D"/>
<rect x="21" y="6" width="1" height="1" fill="#E00D0D"/>
<rect x="21" y="6" width="1" height="1" fill="#E00D0D"/>
<rect x="23" y="6" width="1" height="1" fill="#E00D0D"/>
<rect x="22" y="7" width="1" height="1" fill="#E00D0D"/>
<rect x="20" y="7" width="1" height="1" fill="#E00D0D"/>
<rect x="21" y="7" width="1" height="1" fill="#E00D0D"/>
<rect x="21" y="7" width="1" height="1" fill="#E00D0D"/>
<rect x="23" y="7" width="1" height="1" fill="#E00D0D"/>
<rect x="22" y="8" width="1" height="1" fill="#E00D0D"/>
<rect x="20" y="8" width="1" height="1" fill="#E00D0D"/>
<rect x="21" y="8" width="1" height="1" fill="#E00D0D"/>
<rect x="21" y="8" width="1" height="1" fill="#E00D0D"/>
<rect x="23" y="8" width="1" height="1" fill="#E00D0D"/>
<rect x="17" y="7" width="1" height="1" fill="#E00D0D"/>
<rect x="16" y="7" width="1" height="1" fill="#E00D0D"/>
<rect x="19" y="7" width="1" height="1" fill="#E00D0D"/>
<rect x="18" y="7" width="1" height="1" fill="#E00D0D"/>
<rect x="19" y="6" width="1" height="1" fill="#E00D0D"/>
<rect x="18" y="6" width="1" height="1" fill="#E00D0D"/>
<rect x="17" y="6" width="1" height="1" fill="#E00D0D"/>
<rect x="17" y="5" width="1" height="1" fill="#E00D0D"/>
<rect x="20" y="5" width="1" height="1" fill="#E00D0D"/>
<rect x="19" y="5" width="1" height="1" fill="#E00D0D"/>
<rect x="18" y="5" width="1" height="1" fill="#E00D0D"/>
<rect x="18" y="4" width="1" height="1" fill="#E00D0D"/>
<rect x="18" y="4" width="1" height="1" fill="#E00D0D"/>
<rect x="21" y="4" width="1" height="1" fill="#E00D0D"/>
<rect x="20" y="4" width="1" height="1" fill="#E00D0D"/>
<rect x="19" y="4" width="1" height="1" fill="#E00D0D"/>
<rect x="19" y="3" width="1" height="1" fill="#E00D0D"/>
<rect x="19" y="3" width="1" height="1" fill="#E00D0D"/>
<rect x="22" y="3" width="1" height="1" fill="#E00D0D"/>
<rect x="21" y="3" width="1" height="1" fill="#E00D0D"/>
<rect x="20" y="3" width="1" height="1" fill="#E00D0D"/>
<rect x="16" y="10" width="1" height="1" fill="white"/>
<rect x="17" y="10" width="1" height="1" fill="#E00D0D"/>
<rect x="17" y="10" width="1" height="1" fill="white"/>
<rect x="20" y="10" width="1" height="1" fill="white"/>
<rect x="19" y="10" width="1" height="1" fill="white"/>
<rect x="18" y="10" width="1" height="1" fill="white"/>
<rect x="18" y="11" width="1" height="1" fill="white"/>
<rect x="19" y="11" width="1" height="1" fill="white"/>
<rect x="20" y="11" width="1" height="1" fill="white"/>
<rect x="21" y="11" width="1" height="1" fill="white"/>
<rect x="22" y="11" width="1" height="1" fill="white"/>
<rect x="21" y="2" width="1" height="1" fill="white"/>
<rect x="22" width="1" height="1" fill="white"/>
<rect x="23" width="1" height="1" fill="white"/>
<rect x="23" y="1" width="1" height="1" fill="white"/>
<rect x="22" y="1" width="1" height="1" fill="white"/>
<rect x="21" y="1" width="1" height="1" fill="white"/>
<rect x="20" y="1" width="1" height="1" fill="white"/>
<rect x="21" width="1" height="1" fill="white"/>
<rect x="20" y="2" width="1" height="1" fill="white"/>
<rect x="22" y="2" width="1" height="1" fill="white"/>
<rect x="23" y="11" width="1" height="1" fill="white"/>
<path d="M0 30.2241H8.44828V43.5H0L2.81609 36.8621L0 30.2241Z" fill="#B22727"/>
<path d="M33.793 30.2241H42.2412L39.4252 36.8621L42.2412 43.5H33.793V30.2241Z" fill="#B22727"/>
<path d="M8.44868 43.4999V38.6723L3.62109 36.2585V41.0861L8.44868 43.4999Z" fill="#732D2D"/>
<path d="M33.7935 43.4999V38.6723L38.6211 36.2585V41.0861L33.7935 43.4999Z" fill="#732D2D"/>
<path d="M3.62109 27.8103C3.62109 27.8103 10.259 26 21.1211 26C31.9832 26 38.6211 27.8103 38.6211 27.8103V41.0862C38.6211 41.0862 30.7763 39.2759 21.1211 39.2759C11.4659 39.2759 3.62109 41.0862 3.62109 41.0862V27.8103Z" fill="#D53B3B"/>
<path d="M8.08838 33.2045C8.22313 33.056 8.37576 32.9432 8.54627 32.8662C8.71677 32.7865 8.89691 32.7466 9.08666 32.7466C9.23242 32.7466 9.3713 32.7658 9.5033 32.8043C9.6353 32.8401 9.81269 32.8992 10.0354 32.9817C10.2362 33.0587 10.4053 33.1178 10.5428 33.1591C10.6831 33.1976 10.8261 33.2168 10.9718 33.2168C11.1644 33.2168 11.3431 33.177 11.5081 33.0972C11.6759 33.0147 11.823 32.8965 11.9495 32.7424V33.6417C11.8148 33.7902 11.6621 33.9044 11.4916 33.9841C11.3239 34.0611 11.1437 34.0996 10.9512 34.0996C10.8082 34.0996 10.6666 34.0804 10.5263 34.0419C10.3861 34.0006 10.2114 33.9415 10.0024 33.8645C9.80719 33.7847 9.63805 33.7256 9.49505 33.6871C9.3548 33.6486 9.21042 33.6294 9.06191 33.6294C8.87215 33.6294 8.69477 33.6692 8.52977 33.749C8.36751 33.8287 8.22038 33.947 8.08838 34.1037V33.2045ZM15.4932 36.4138H14.4124V31.4884H14.3794L12.981 32.3836V31.3977L14.4619 30.4406H15.4932V36.4138ZM16.7762 35.6342L18.8842 33.6046C19.1152 33.3736 19.2939 33.1852 19.4205 33.0395C19.547 32.891 19.6432 32.7438 19.7092 32.5981C19.7752 32.4523 19.8082 32.2983 19.8082 32.1361C19.8082 31.9573 19.7628 31.7992 19.6721 31.6617C19.5813 31.5242 19.459 31.4183 19.3049 31.344C19.1509 31.267 18.9749 31.2285 18.7769 31.2285C18.5789 31.2285 18.4029 31.2698 18.2489 31.3523C18.0949 31.432 17.9767 31.5475 17.8942 31.6988C17.8117 31.85 17.7704 32.0247 17.7704 32.2227H16.7515C16.7515 31.8514 16.8381 31.5255 17.0114 31.245C17.1846 30.9618 17.4253 30.7431 17.7333 30.5891C18.044 30.4351 18.3974 30.3581 18.7934 30.3581C19.1949 30.3581 19.5497 30.4324 19.8577 30.5809C20.1657 30.7294 20.405 30.9343 20.5755 31.1955C20.7487 31.4568 20.8354 31.7538 20.8354 32.0866C20.8354 32.3176 20.7914 32.5403 20.7034 32.7548C20.6154 32.9693 20.4641 33.2058 20.2496 33.4643C20.0378 33.7229 19.734 34.0391 19.338 34.4131L18.2737 35.4692V35.5145H20.9261V36.4138H16.7804L16.7762 35.6342ZM22.3577 36.4798C22.2422 36.4798 22.135 36.4509 22.036 36.3932C21.937 36.3327 21.8586 36.2543 21.8008 36.1581C21.7458 36.0591 21.7183 35.9518 21.7183 35.8363C21.7183 35.7235 21.7458 35.619 21.8008 35.5228C21.8586 35.4238 21.937 35.3468 22.036 35.2918C22.135 35.234 22.2422 35.2052 22.3577 35.2052C22.4677 35.2052 22.5722 35.234 22.6712 35.2918C22.7702 35.3468 22.8486 35.4238 22.9064 35.5228C22.9641 35.619 22.993 35.7235 22.993 35.8363C22.993 35.9518 22.9641 36.0591 22.9064 36.1581C22.8486 36.2543 22.7702 36.3327 22.6712 36.3932C22.5722 36.4509 22.4677 36.4798 22.3577 36.4798ZM25.8024 36.4963C25.3816 36.4963 25.0048 36.4248 24.6721 36.2818C24.3393 36.1388 24.0781 35.9381 23.8883 35.6795C23.7013 35.4183 23.6023 35.1227 23.5913 34.7926H24.6762C24.6872 34.9466 24.7422 35.0841 24.8412 35.2052C24.9402 35.3262 25.0736 35.421 25.2413 35.4898C25.4091 35.5558 25.5947 35.5888 25.7982 35.5888C26.0155 35.5888 26.2108 35.5517 26.384 35.4774C26.56 35.4004 26.6961 35.2959 26.7924 35.1639C26.8887 35.0291 26.9354 34.8751 26.9327 34.7019C26.9354 34.5176 26.8873 34.3568 26.7883 34.2192C26.692 34.079 26.549 33.9704 26.3593 33.8934C26.1723 33.8136 25.9509 33.7737 25.6951 33.7737H25.163V32.9446H25.6951C25.9069 32.9446 26.0939 32.9088 26.2561 32.8373C26.4211 32.7631 26.5476 32.6599 26.6356 32.5279C26.7264 32.3959 26.7718 32.2447 26.7718 32.0742C26.7718 31.9064 26.7319 31.7593 26.6521 31.6328C26.5751 31.5035 26.4638 31.4045 26.318 31.3358C26.175 31.2643 26.0072 31.2285 25.8147 31.2285C25.6277 31.2285 25.4531 31.2629 25.2909 31.3317C25.1313 31.3977 25.0021 31.4925 24.9031 31.6163C24.8068 31.7373 24.7546 31.8817 24.7463 32.0494H23.7109C23.7247 31.7194 23.8237 31.4265 24.0079 31.1708C24.1949 30.915 24.4466 30.7156 24.7628 30.5726C25.0791 30.4296 25.4311 30.3581 25.8189 30.3581C26.2149 30.3581 26.5628 30.431 26.8625 30.5768C27.165 30.7225 27.3988 30.9219 27.5638 31.1749C27.7316 31.4252 27.8127 31.7043 27.8072 32.0123C27.8127 32.2296 27.7701 32.4289 27.6793 32.6104C27.5886 32.7892 27.4593 32.9377 27.2915 33.056C27.1238 33.1742 26.9313 33.2567 26.714 33.3035V33.3488C26.9945 33.3846 27.2338 33.4671 27.4318 33.5964C27.6298 33.7229 27.7811 33.8851 27.8856 34.0831C27.9901 34.2784 28.0396 34.5025 28.0341 34.7555C28.0396 35.0828 27.9447 35.3798 27.7494 35.6465C27.5569 35.9106 27.2902 36.1182 26.9492 36.2694C26.6109 36.4207 26.2286 36.4963 25.8024 36.4963ZM31.2271 36.4138H30.1463V31.4884H30.1133L28.7149 32.3836V31.3977L30.1958 30.4406H31.2271V36.4138Z" fill="white"/>
</svg>
