<svg width="45" height="49" viewBox="0 0 45 49" fill="none" xmlns="http://www.w3.org/2000/svg">
<path fill-rule="evenodd" clip-rule="evenodd" d="M15.3789 12H14.3789V13V14V15V16V17V18V19H13.3789V20V21V22H12.3789V30H13.3789V32H14.3789H28.3789H30.3789V30H31.3789V28H32.3789V25H31.3789V22H30.3789V21H29.3789V20V19H28.3789V18V17V16V15V14V13V12H27.3789V13H26.3789V14H24.3789V15V16H23.3789V17H19.3789V16H18.3789V15H17.3789V14H16.3789V13H15.3789V12Z" fill="#212121"/>
<path fill-rule="evenodd" clip-rule="evenodd" d="M19.3789 22H17.3789V24H19.3789V22ZM24.3789 22H22.3789V24H24.3789V22Z" fill="white"/>
<rect x="17.3789" y="16" width="1" height="1" fill="white"/>
<rect x="18.3789" y="16" width="1" height="1" fill="white"/>
<rect x="17.3789" y="14" width="1" height="1" fill="#E00D0D"/>
<rect x="18.3789" y="14" width="1" height="1" fill="#E00D0D"/>
<rect x="18.3789" y="14" width="1" height="1" fill="#E00D0D"/>
<rect x="18.3789" y="13" width="1" height="1" fill="#E00D0D"/>
<rect x="24.3789" y="10" width="1" height="1" fill="#E00D0D"/>
<rect x="23.3789" y="9" width="1" height="1" fill="#E00D0D"/>
<rect x="23.3789" y="10" width="1" height="1" fill="#E00D0D"/>
<rect x="22.3789" y="10" width="1" height="1" fill="#E00D0D"/>
<rect x="24.3789" y="14" width="1" height="1" fill="#E00D0D"/>
<rect x="23.3789" y="14" width="1" height="1" fill="#E00D0D"/>
<rect x="22.3789" y="14" width="1" height="1" fill="#E00D0D"/>
<rect x="24.3789" y="15" width="1" height="1" fill="#E00D0D"/>
<rect x="24.3789" y="15" width="1" height="1" fill="white"/>
<rect x="23.3789" y="15" width="1" height="1" fill="white"/>
<rect x="22.3789" y="15" width="1" height="1" fill="white"/>
<rect x="21.3789" y="14" width="1" height="1" fill="#E00D0D"/>
<rect x="20.3789" y="14" width="1" height="1" fill="#E00D0D"/>
<rect x="19.3789" y="14" width="1" height="1" fill="#E00D0D"/>
<rect x="17.3789" y="13" width="1" height="1" fill="#E00D0D"/>
<rect x="20.3789" y="13" width="1" height="1" fill="#E00D0D"/>
<rect x="19.3789" y="13" width="1" height="1" fill="#E00D0D"/>
<rect x="23.3789" y="11" width="1" height="1" fill="#E00D0D"/>
<rect x="21.3789" y="11" width="1" height="1" fill="#E00D0D"/>
<rect x="22.3789" y="11" width="1" height="1" fill="#E00D0D"/>
<rect x="22.3789" y="11" width="1" height="1" fill="#E00D0D"/>
<rect x="24.3789" y="11" width="1" height="1" fill="#E00D0D"/>
<rect x="23.3789" y="12" width="1" height="1" fill="#E00D0D"/>
<rect x="21.3789" y="12" width="1" height="1" fill="#E00D0D"/>
<rect x="22.3789" y="12" width="1" height="1" fill="#E00D0D"/>
<rect x="22.3789" y="12" width="1" height="1" fill="#E00D0D"/>
<rect x="24.3789" y="12" width="1" height="1" fill="#E00D0D"/>
<rect x="23.3789" y="13" width="1" height="1" fill="#E00D0D"/>
<rect x="21.3789" y="13" width="1" height="1" fill="#E00D0D"/>
<rect x="22.3789" y="13" width="1" height="1" fill="#E00D0D"/>
<rect x="22.3789" y="13" width="1" height="1" fill="#E00D0D"/>
<rect x="24.3789" y="13" width="1" height="1" fill="#E00D0D"/>
<rect x="18.3789" y="12" width="1" height="1" fill="#E00D0D"/>
<rect x="17.3789" y="12" width="1" height="1" fill="#E00D0D"/>
<rect x="20.3789" y="12" width="1" height="1" fill="#E00D0D"/>
<rect x="19.3789" y="12" width="1" height="1" fill="#E00D0D"/>
<rect x="20.3789" y="11" width="1" height="1" fill="#E00D0D"/>
<rect x="19.3789" y="11" width="1" height="1" fill="#E00D0D"/>
<rect x="18.3789" y="11" width="1" height="1" fill="#E00D0D"/>
<rect x="18.3789" y="10" width="1" height="1" fill="#E00D0D"/>
<rect x="21.3789" y="10" width="1" height="1" fill="#E00D0D"/>
<rect x="20.3789" y="10" width="1" height="1" fill="#E00D0D"/>
<rect x="19.3789" y="10" width="1" height="1" fill="#E00D0D"/>
<rect x="19.3789" y="9" width="1" height="1" fill="#E00D0D"/>
<rect x="19.3789" y="9" width="1" height="1" fill="#E00D0D"/>
<rect x="22.3789" y="9" width="1" height="1" fill="#E00D0D"/>
<rect x="21.3789" y="9" width="1" height="1" fill="#E00D0D"/>
<rect x="20.3789" y="9" width="1" height="1" fill="#E00D0D"/>
<rect x="20.3789" y="8" width="1" height="1" fill="#E00D0D"/>
<rect x="20.3789" y="8" width="1" height="1" fill="#E00D0D"/>
<rect x="23.3789" y="8" width="1" height="1" fill="#E00D0D"/>
<rect x="22.3789" y="8" width="1" height="1" fill="#E00D0D"/>
<rect x="21.3789" y="8" width="1" height="1" fill="#E00D0D"/>
<rect x="17.3789" y="15" width="1" height="1" fill="white"/>
<rect x="18.3789" y="15" width="1" height="1" fill="#E00D0D"/>
<rect x="18.3789" y="15" width="1" height="1" fill="white"/>
<rect x="21.3789" y="15" width="1" height="1" fill="white"/>
<rect x="20.3789" y="15" width="1" height="1" fill="white"/>
<rect x="19.3789" y="15" width="1" height="1" fill="white"/>
<rect x="19.3789" y="16" width="1" height="1" fill="white"/>
<rect x="20.3789" y="16" width="1" height="1" fill="white"/>
<rect x="21.3789" y="16" width="1" height="1" fill="white"/>
<rect x="22.3789" y="16" width="1" height="1" fill="white"/>
<rect x="23.3789" y="16" width="1" height="1" fill="white"/>
<rect x="22.3789" y="7" width="1" height="1" fill="white"/>
<rect x="23.3789" y="5" width="1" height="1" fill="white"/>
<rect x="24.3789" y="5" width="1" height="1" fill="white"/>
<rect x="24.3789" y="6" width="1" height="1" fill="white"/>
<rect x="23.3789" y="6" width="1" height="1" fill="white"/>
<rect x="22.3789" y="6" width="1" height="1" fill="white"/>
<rect x="21.3789" y="6" width="1" height="1" fill="white"/>
<rect x="22.3789" y="5" width="1" height="1" fill="white"/>
<rect x="21.3789" y="7" width="1" height="1" fill="white"/>
<rect x="23.3789" y="7" width="1" height="1" fill="white"/>
<rect x="24.3789" y="16" width="1" height="1" fill="white"/>
<path d="M1.37891 35.2241H9.82718V48.5H1.37891L4.195 41.8621L1.37891 35.2241Z" fill="#B22727"/>
<path d="M35.1719 35.2241H43.6202L40.8041 41.8621L43.6202 48.5H35.1719V35.2241Z" fill="#B22727"/>
<path d="M9.82777 48.4999V43.6723L5.00018 41.2585V46.0861L9.82777 48.4999Z" fill="#732D2D"/>
<path d="M35.1726 48.4999V43.6723L40.0002 41.2585V46.0861L35.1726 48.4999Z" fill="#732D2D"/>
<path d="M5.00018 32.8103C5.00018 32.8103 11.6381 31 22.5002 31C33.3623 31 40.0002 32.8103 40.0002 32.8103V46.0862C40.0002 46.0862 32.1554 44.2759 22.5002 44.2759C12.845 44.2759 5.00018 46.0862 5.00018 46.0862V32.8103Z" fill="#D53B3B"/>
<path d="M9.61416 34.4646H10.5644L11.4633 38.1082H11.5077L12.4613 34.4646H13.3397L14.2968 38.1116H14.3378L15.2333 34.4646H16.1869L14.7958 39.4138H13.9105L12.9228 35.9309H12.8817L11.8905 39.4138H11.0087L9.61416 34.4646ZM17.5064 39.4138H16.6177V34.4646H17.5064V39.4138ZM22.3532 39.4138H21.5637L19.2223 36.0334H19.1779V39.4138H18.2892V34.4646H19.089L21.4235 37.8484H21.4679V34.4646H22.3532V39.4138ZM22.9105 34.4646H26.8582V35.2131H25.3304V39.4138H24.4451V35.2131H22.9105V34.4646ZM27.4223 34.4646H30.6386V35.2131H28.311V36.5667H30.4712V37.3083H28.311V38.6653H30.6523V39.4138H27.4223V34.4646ZM31.3497 34.4646H33.2022C33.5759 34.4646 33.8938 34.5295 34.1559 34.6594C34.4179 34.7893 34.615 34.9739 34.7472 35.2131C34.8816 35.4524 34.9488 35.7304 34.9488 36.0471C34.9488 36.3639 34.8816 36.6384 34.7472 36.8708C34.6127 37.1033 34.4133 37.2833 34.149 37.4109C33.8847 37.5385 33.5646 37.6023 33.1886 37.6023H31.8624V36.8572H33.0689C33.2945 36.8572 33.478 36.8264 33.6192 36.7649C33.7605 36.7011 33.8653 36.6099 33.9337 36.4915C34.0043 36.373 34.0396 36.2249 34.0396 36.0471C34.0396 35.8671 34.0043 35.7156 33.9337 35.5925C33.8653 35.4672 33.7594 35.3726 33.6158 35.3088C33.4723 35.2428 33.2888 35.2097 33.0655 35.2097H32.2384V39.4138H31.3497V34.4646ZM35.1266 39.4138H34.1285L32.9288 37.175H33.9029L35.1266 39.4138Z" fill="white"/>
</svg>
