<svg width="43" height="45" viewBox="0 0 43 45" fill="none" xmlns="http://www.w3.org/2000/svg">
<path d="M21.7219 0.624756L29.2998 8.49995H14.144L21.7219 0.624756Z" fill="#246F50"/>
<path d="M21.7221 4.99976L33.0889 18.1251H10.3552L21.7221 4.99976Z" fill="#246F50"/>
<path d="M21.7222 12L36.878 30.3754H6.56635L21.7222 12Z" fill="#246F50"/>
<rect x="5.97168" y="29.4998" width="0.875021" height="0.875021" fill="#246F50"/>
<rect x="10.3469" y="17.25" width="0.875021" height="0.875021" fill="#246F50"/>
<rect x="18.2217" y="15.5" width="0.875021" height="0.875021" fill="#246F50"/>
<rect x="32.2218" y="17.25" width="0.875021" height="0.875021" fill="#246F50"/>
<rect x="27.8468" y="7.62524" width="0.875021" height="0.875021" fill="#246F50"/>
<rect x="32.2218" y="17.25" width="0.875021" height="0.875021" fill="#246F50"/>
<rect x="27.8468" y="6.75" width="0.875021" height="0.875021" fill="#246F50"/>
<rect x="25.2207" y="4.12476" width="0.875021" height="0.875021" fill="#246F50"/>
<rect x="19.9714" y="1.50024" width="0.875021" height="0.875021" fill="#246F50"/>
<rect x="14.7219" y="6.75" width="0.875021" height="0.875021" fill="#246F50"/>
<rect x="15.5965" y="5.87524" width="0.875021" height="0.875021" fill="#246F50"/>
<rect x="16.4707" y="4.99976" width="0.875021" height="0.875021" fill="#246F50"/>
<rect x="17.3467" y="4.125" width="0.875021" height="0.875021" fill="#246F50"/>
<rect x="18.2217" y="3.25" width="0.875021" height="0.875021" fill="#246F50"/>
<rect x="19.0969" y="2.375" width="0.875021" height="0.875021" fill="#246F50"/>
<rect x="20.8457" y="0.624756" width="0.875021" height="0.875021" fill="#246F50"/>
<rect x="21.7216" y="0.624756" width="0.875021" height="0.875021" fill="#246F50"/>
<rect x="22.5967" y="1.50024" width="0.875021" height="0.875021" fill="#246F50"/>
<rect x="23.4719" y="2.375" width="0.875021" height="0.875021" fill="#246F50"/>
<rect x="24.3467" y="3.25" width="0.875021" height="0.875021" fill="#246F50"/>
<rect x="26.0966" y="5.87524" width="0.875021" height="0.875021" fill="#246F50"/>
<rect x="26.0966" y="4.99976" width="0.875021" height="0.875021" fill="#246F50"/>
<rect x="26.9707" y="5.875" width="0.875021" height="0.875021" fill="#246F50"/>
<rect x="28.7217" y="7.62524" width="0.875021" height="0.875021" fill="#246F50"/>
<rect x="19.0969" y="11.125" width="0.875021" height="0.875021" fill="#FCFBE9"/>
<rect x="19.0969" y="11.125" width="0.875021" height="0.875021" fill="#FCFBE9"/>
<rect x="23.4719" y="13.7498" width="0.875021" height="0.875021" fill="#FCFBE9"/>
<rect x="16.4707" y="13.7498" width="0.875021" height="0.875021" fill="#FCFBE9"/>
<rect x="19.9714" y="15.5" width="0.875021" height="0.875021" fill="#FCFBE9"/>
<rect x="21.7216" y="19.875" width="0.875021" height="0.875021" fill="#FCFBE9"/>
<rect x="26.0966" y="14.625" width="0.875021" height="0.875021" fill="#FCFBE9"/>
<rect x="22.5967" y="4.12476" width="0.875021" height="0.875021" fill="#FCFBE9"/>
<rect x="18.2217" y="5.875" width="0.875021" height="0.875021" fill="#FCFBE9"/>
<rect x="18.2217" y="25.9998" width="0.875021" height="0.875021" fill="#FCFBE9"/>
<rect x="26.0966" y="26.875" width="0.875021" height="0.875021" fill="#FCFBE9"/>
<rect x="14.7219" y="25.9998" width="0.875021" height="0.875021" fill="#FCFBE9"/>
<rect x="14.7219" y="25.9998" width="0.875021" height="0.875021" fill="#FCFBE9"/>
<rect x="21.7216" y="24.25" width="0.875021" height="0.875021" fill="#FCFBE9"/>
<rect x="29.5967" y="25.9998" width="0.875021" height="0.875021" fill="#FCFBE9"/>
<rect x="17.3467" y="20.7498" width="0.875021" height="0.875021" fill="#FCFBE9"/>
<rect x="24.3467" y="17.25" width="0.875021" height="0.875021" fill="#FCFBE9"/>
<rect x="26.9707" y="21.625" width="0.875021" height="0.875021" fill="#FCFBE9"/>
<rect x="22.5967" y="9.37476" width="0.875021" height="0.875021" fill="#FCFBE9"/>
<rect x="26.9707" y="6.75" width="0.875021" height="0.875021" fill="#246F50"/>
<rect x="13.8467" y="7.62524" width="0.875021" height="0.875021" fill="#246F50"/>
<rect x="24.3467" y="8.49976" width="0.875021" height="0.875021" fill="#246F50"/>
<rect x="25.2207" y="9.37476" width="0.875021" height="0.875021" fill="#246F50"/>
<rect x="26.0966" y="10.2502" width="0.875021" height="0.875021" fill="#246F50"/>
<rect x="26.9707" y="11.125" width="0.875021" height="0.875021" fill="#246F50"/>
<rect x="27.8468" y="12" width="0.875021" height="0.875021" fill="#246F50"/>
<rect x="27.8468" y="12.875" width="0.875021" height="0.875021" fill="#246F50"/>
<rect x="28.7217" y="12.875" width="0.875021" height="0.875021" fill="#246F50"/>
<rect x="28.7217" y="13.7498" width="0.875021" height="0.875021" fill="#246F50"/>
<rect x="29.5967" y="13.7498" width="0.875021" height="0.875021" fill="#246F50"/>
<rect x="30.4727" y="14.625" width="0.875021" height="0.875021" fill="#246F50"/>
<rect x="29.5967" y="14.625" width="0.875021" height="0.875021" fill="#246F50"/>
<rect x="30.4727" y="15.5" width="0.875021" height="0.875021" fill="#246F50"/>
<rect x="31.3477" y="16.3748" width="0.875021" height="0.875021" fill="#246F50"/>
<rect x="18.2217" y="8.49976" width="0.875021" height="0.875021" fill="#246F50"/>
<rect x="17.3467" y="9.37476" width="0.875021" height="0.875021" fill="#246F50"/>
<rect x="16.4707" y="10.25" width="0.875021" height="0.875021" fill="#246F50"/>
<rect x="15.5965" y="11.125" width="0.875021" height="0.875021" fill="#246F50"/>
<rect x="13.8467" y="13.7498" width="0.875021" height="0.875021" fill="#246F50"/>
<rect x="14.7219" y="12" width="0.875021" height="0.875021" fill="#246F50"/>
<rect x="13.8467" y="12.875" width="0.875021" height="0.875021" fill="#246F50"/>
<rect x="12.0957" y="14.625" width="0.875021" height="0.875021" fill="#246F50"/>
<rect x="12.9717" y="13.7498" width="0.875021" height="0.875021" fill="#246F50"/>
<rect x="12.9717" y="14.625" width="0.875021" height="0.875021" fill="#246F50"/>
<rect x="12.0957" y="15.5" width="0.875021" height="0.875021" fill="#246F50"/>
<rect x="11.2215" y="16.3748" width="0.875021" height="0.875021" fill="#246F50"/>
<rect x="36.5967" y="29.4998" width="0.875021" height="0.875021" fill="#246F50"/>
<rect x="15.5965" y="18.125" width="0.875021" height="0.875021" fill="#246F50"/>
<rect x="15.5965" y="18.9998" width="0.875021" height="0.875021" fill="#246F50"/>
<rect x="14.7219" y="18.9998" width="0.875021" height="0.875021" fill="#246F50"/>
<rect x="14.7219" y="19.875" width="0.875021" height="0.875021" fill="#246F50"/>
<rect x="13.8467" y="20.7498" width="0.875021" height="0.875021" fill="#246F50"/>
<rect x="12.9717" y="21.625" width="0.875021" height="0.875021" fill="#246F50"/>
<rect x="12.0957" y="22.5" width="0.875021" height="0.875021" fill="#246F50"/>
<rect x="12.0957" y="23.3748" width="0.875021" height="0.875021" fill="#246F50"/>
<rect x="11.2215" y="23.3748" width="0.875021" height="0.875021" fill="#246F50"/>
<rect x="11.2215" y="24.25" width="0.875021" height="0.875021" fill="#246F50"/>
<rect x="10.3469" y="24.25" width="0.875021" height="0.875021" fill="#246F50"/>
<rect x="10.3469" y="25.1248" width="0.875021" height="0.875021" fill="#246F50"/>
<rect x="9.47168" y="25.1248" width="0.875021" height="0.875021" fill="#246F50"/>
<rect x="9.47168" y="25.9998" width="0.875021" height="0.875021" fill="#246F50"/>
<rect x="8.59674" y="26.875" width="0.875021" height="0.875021" fill="#246F50"/>
<rect x="8.59674" y="25.9998" width="0.875021" height="0.875021" fill="#246F50"/>
<rect x="7.72168" y="28.6248" width="0.875021" height="0.875021" fill="#246F50"/>
<rect x="7.72168" y="27.7498" width="0.875021" height="0.875021" fill="#246F50"/>
<rect x="6.8465" y="28.6248" width="0.875021" height="0.875021" fill="#246F50"/>
<rect x="6.8465" y="29.4998" width="0.875021" height="0.875021" fill="#246F50"/>
<rect x="34.8466" y="27.7498" width="0.875021" height="0.875021" fill="#246F50"/>
<rect x="33.9709" y="27.7498" width="0.875021" height="0.875021" fill="#246F50"/>
<rect x="34.8466" y="29.4998" width="0.875021" height="0.875021" fill="#246F50"/>
<rect x="26.9707" y="18.125" width="0.875021" height="0.875021" fill="#246F50"/>
<rect x="26.0966" y="18.125" width="0.875021" height="0.875021" fill="#246F50"/>
<rect x="26.9707" y="18.9998" width="0.875021" height="0.875021" fill="#246F50"/>
<rect x="27.8468" y="18.9998" width="0.875021" height="0.875021" fill="#246F50"/>
<rect x="27.8468" y="19.875" width="0.875021" height="0.875021" fill="#246F50"/>
<rect x="28.7217" y="19.875" width="0.875021" height="0.875021" fill="#246F50"/>
<rect x="28.7217" y="20.7498" width="0.875021" height="0.875021" fill="#246F50"/>
<rect x="29.5967" y="20.7498" width="0.875021" height="0.875021" fill="#246F50"/>
<rect x="29.5967" y="21.625" width="0.875021" height="0.875021" fill="#246F50"/>
<rect x="30.4727" y="22.5" width="0.875021" height="0.875021" fill="#246F50"/>
<rect x="31.3477" y="23.3748" width="0.875021" height="0.875021" fill="#246F50"/>
<rect x="32.2218" y="24.25" width="0.875021" height="0.875021" fill="#246F50"/>
<rect x="34.8466" y="29.4998" width="0.875021" height="0.875021" fill="#246F50"/>
<rect x="29.5967" y="22.5" width="0.875021" height="0.875021" fill="#246F50"/>
<rect x="30.4727" y="23.3748" width="0.875021" height="0.875021" fill="#246F50"/>
<rect x="31.3477" y="25.1248" width="0.875021" height="0.875021" fill="#246F50"/>
<rect x="32.2218" y="25.9998" width="0.875021" height="0.875021" fill="#246F50"/>
<rect x="33.0967" y="26.875" width="0.875021" height="0.875021" fill="#246F50"/>
<rect x="31.3477" y="24.25" width="0.875021" height="0.875021" fill="#246F50"/>
<rect x="32.2218" y="25.1248" width="0.875021" height="0.875021" fill="#246F50"/>
<rect x="33.0967" y="25.9998" width="0.875021" height="0.875021" fill="#246F50"/>
<rect x="33.9709" y="26.875" width="0.875021" height="0.875021" fill="#246F50"/>
<rect x="34.8466" y="28.6248" width="0.875021" height="0.875021" fill="#246F50"/>
<rect x="35.7207" y="28.6248" width="0.875021" height="0.875021" fill="#246F50"/>
<rect x="35.7207" y="29.4998" width="0.875021" height="0.875021" fill="#246F50"/>
<path fill-rule="evenodd" clip-rule="evenodd" d="M25.0169 13.6226H24.2625V14.3769H25.0169V13.6226ZM25.7722 14.3773H24.2634V15.1309H23.5037V15.8852H25.7668V15.1317H25.7722V14.3773ZM26.5239 15.8855H23.5065V16.6399H26.5239V15.8855ZM23.5077 16.6401H27.2795V17.3941H30.2954V16.6407H31.0497V15.8865H34.0672V16.6407V16.6409V17.3941H34.0688V17.3951H34.0701V18.1492V18.1494V18.9036H34.0688V18.9039H34.8231V19.6573V19.6582V20.4116H34.0688V20.4119H35.5769V28.7099H22.7527V27.2007H21.9998V21.1658H22.7519V20.4116H23.5077V20.4111H22.7519V19.6567H22.7527V18.9033H23.5077V18.1494L23.5077 18.1487H23.5065V17.3943H23.5077L23.5077 17.3941L23.5077 16.6401ZM35.577 21.1658H36.3313V23.4288H37.0852V25.6919H36.3313V27.2007H35.577V21.1658ZM33.3143 13.6229H32.5599V14.3772H33.3143V13.6229ZM33.3143 15.1317H34.0672V15.886H31.8041V15.1317H31.8055V14.3777H33.3143V15.1317Z" fill="#212121"/>
<path fill-rule="evenodd" clip-rule="evenodd" d="M31.0501 21.1665H29.5413V22.6752H31.0501V21.1665ZM27.2788 21.1666H25.7701V22.6753H27.2788V21.1666Z" fill="white"/>
<path d="M0.378906 31.2241H8.82718V44.5H0.378906L3.195 37.8621L0.378906 31.2241Z" fill="#B22727"/>
<path d="M34.1719 31.2241H42.6202L39.8041 37.8621L42.6202 44.5H34.1719V31.2241Z" fill="#B22727"/>
<path d="M8.82777 44.4999V39.6723L4.00018 37.2585V42.0861L8.82777 44.4999Z" fill="#732D2D"/>
<path d="M34.1726 44.4999V39.6723L39.0002 37.2585V42.0861L34.1726 44.4999Z" fill="#732D2D"/>
<path d="M4.00018 28.8103C4.00018 28.8103 10.6381 27 21.5002 27C32.3623 27 39.0002 28.8103 39.0002 28.8103V42.0862C39.0002 42.0862 31.1554 40.2759 21.5002 40.2759C11.845 40.2759 4.00018 42.0862 4.00018 42.0862V28.8103Z" fill="#D53B3B"/>
<path d="M8.61416 30.4646H9.56436L10.4633 34.1082H10.5077L11.4613 30.4646H12.3397L13.2968 34.1116H13.3378L14.2333 30.4646H15.1869L13.7958 35.4138H12.9105L11.9228 31.9309H11.8817L10.8905 35.4138H10.0087L8.61416 30.4646ZM16.5064 35.4138H15.6177V30.4646H16.5064V35.4138ZM21.3532 35.4138H20.5637L18.2223 32.0334H18.1779V35.4138H17.2892V30.4646H18.089L20.4235 33.8484H20.4679V30.4646H21.3532V35.4138ZM21.9105 30.4646H25.8582V31.2131H24.3304V35.4138H23.4451V31.2131H21.9105V30.4646ZM26.4223 30.4646H29.6386V31.2131H27.311V32.5667H29.4712V33.3083H27.311V34.6653H29.6523V35.4138H26.4223V30.4646ZM30.3497 30.4646H32.2022C32.5759 30.4646 32.8938 30.5295 33.1559 30.6594C33.4179 30.7893 33.615 30.9739 33.7472 31.2131C33.8816 31.4524 33.9488 31.7304 33.9488 32.0471C33.9488 32.3639 33.8816 32.6384 33.7472 32.8708C33.6127 33.1033 33.4133 33.2833 33.149 33.4109C32.8847 33.5385 32.5646 33.6023 32.1886 33.6023H30.8624V32.8572H32.0689C32.2945 32.8572 32.478 32.8264 32.6192 32.7649C32.7605 32.7011 32.8653 32.6099 32.9337 32.4915C33.0043 32.373 33.0396 32.2249 33.0396 32.0471C33.0396 31.8671 33.0043 31.7156 32.9337 31.5925C32.8653 31.4672 32.7594 31.3726 32.6158 31.3088C32.4723 31.2428 32.2888 31.2097 32.0655 31.2097H31.2384V35.4138H30.3497V30.4646ZM34.1266 35.4138H33.1285L31.9288 33.175H32.9029L34.1266 35.4138Z" fill="white"/>
</svg>
