<svg width="45" height="49" viewBox="0 0 45 49" fill="none" xmlns="http://www.w3.org/2000/svg">
<path d="M45 22.5C45 34.9264 34.9264 45 22.5 45C10.0736 45 0 34.9264 0 22.5C0 10.0736 10.0736 0 22.5 0C34.9264 0 45 10.0736 45 22.5Z" fill="#DE6565"/>
<path d="M22.7219 4.62476L30.2998 12.4999H15.144L22.7219 4.62476Z" fill="#246F50"/>
<path d="M22.7221 8.99976L34.0889 22.1251H11.3552L22.7221 8.99976Z" fill="#246F50"/>
<path d="M22.7222 16L37.878 34.3754H7.56635L22.7222 16Z" fill="#246F50"/>
<rect x="6.97168" y="33.4998" width="0.875021" height="0.875021" fill="#246F50"/>
<rect x="11.3469" y="21.25" width="0.875021" height="0.875021" fill="#246F50"/>
<rect x="19.2217" y="19.5" width="0.875021" height="0.875021" fill="#246F50"/>
<rect x="33.2218" y="21.25" width="0.875021" height="0.875021" fill="#246F50"/>
<rect x="28.8468" y="11.6252" width="0.875021" height="0.875021" fill="#246F50"/>
<rect x="33.2218" y="21.25" width="0.875021" height="0.875021" fill="#246F50"/>
<rect x="28.8468" y="10.75" width="0.875021" height="0.875021" fill="#246F50"/>
<rect x="26.2207" y="8.12476" width="0.875021" height="0.875021" fill="#246F50"/>
<rect x="20.9714" y="5.50024" width="0.875021" height="0.875021" fill="#246F50"/>
<rect x="15.7219" y="10.75" width="0.875021" height="0.875021" fill="#246F50"/>
<rect x="16.5965" y="9.87524" width="0.875021" height="0.875021" fill="#246F50"/>
<rect x="17.4707" y="8.99976" width="0.875021" height="0.875021" fill="#246F50"/>
<rect x="18.3467" y="8.125" width="0.875021" height="0.875021" fill="#246F50"/>
<rect x="19.2217" y="7.25" width="0.875021" height="0.875021" fill="#246F50"/>
<rect x="20.0969" y="6.375" width="0.875021" height="0.875021" fill="#246F50"/>
<rect x="21.8457" y="4.62476" width="0.875021" height="0.875021" fill="#246F50"/>
<rect x="22.7216" y="4.62476" width="0.875021" height="0.875021" fill="#246F50"/>
<rect x="23.5967" y="5.50024" width="0.875021" height="0.875021" fill="#246F50"/>
<rect x="24.4719" y="6.375" width="0.875021" height="0.875021" fill="#246F50"/>
<rect x="25.3467" y="7.25" width="0.875021" height="0.875021" fill="#246F50"/>
<rect x="27.0966" y="9.87524" width="0.875021" height="0.875021" fill="#246F50"/>
<rect x="27.0966" y="8.99976" width="0.875021" height="0.875021" fill="#246F50"/>
<rect x="27.9707" y="9.875" width="0.875021" height="0.875021" fill="#246F50"/>
<rect x="29.7217" y="11.6252" width="0.875021" height="0.875021" fill="#246F50"/>
<rect x="20.0969" y="15.125" width="0.875021" height="0.875021" fill="#FCFBE9"/>
<rect x="20.0969" y="15.125" width="0.875021" height="0.875021" fill="#FCFBE9"/>
<rect x="24.4719" y="17.7498" width="0.875021" height="0.875021" fill="#FCFBE9"/>
<rect x="17.4707" y="17.7498" width="0.875021" height="0.875021" fill="#FCFBE9"/>
<rect x="20.9714" y="19.5" width="0.875021" height="0.875021" fill="#FCFBE9"/>
<rect x="22.7216" y="23.875" width="0.875021" height="0.875021" fill="#FCFBE9"/>
<rect x="27.0966" y="18.625" width="0.875021" height="0.875021" fill="#FCFBE9"/>
<rect x="23.5967" y="8.12476" width="0.875021" height="0.875021" fill="#FCFBE9"/>
<rect x="19.2217" y="9.875" width="0.875021" height="0.875021" fill="#FCFBE9"/>
<rect x="19.2217" y="29.9998" width="0.875021" height="0.875021" fill="#FCFBE9"/>
<rect x="27.0966" y="30.875" width="0.875021" height="0.875021" fill="#FCFBE9"/>
<rect x="15.7219" y="29.9998" width="0.875021" height="0.875021" fill="#FCFBE9"/>
<rect x="15.7219" y="29.9998" width="0.875021" height="0.875021" fill="#FCFBE9"/>
<rect x="22.7216" y="28.25" width="0.875021" height="0.875021" fill="#FCFBE9"/>
<rect x="30.5967" y="29.9998" width="0.875021" height="0.875021" fill="#FCFBE9"/>
<rect x="18.3467" y="24.7498" width="0.875021" height="0.875021" fill="#FCFBE9"/>
<rect x="25.3467" y="21.25" width="0.875021" height="0.875021" fill="#FCFBE9"/>
<rect x="27.9707" y="25.625" width="0.875021" height="0.875021" fill="#FCFBE9"/>
<rect x="23.5967" y="13.3748" width="0.875021" height="0.875021" fill="#FCFBE9"/>
<rect x="27.9707" y="10.75" width="0.875021" height="0.875021" fill="#246F50"/>
<rect x="14.8467" y="11.6252" width="0.875021" height="0.875021" fill="#246F50"/>
<rect x="25.3467" y="12.4998" width="0.875021" height="0.875021" fill="#246F50"/>
<rect x="26.2207" y="13.3748" width="0.875021" height="0.875021" fill="#246F50"/>
<rect x="27.0966" y="14.2502" width="0.875021" height="0.875021" fill="#246F50"/>
<rect x="27.9707" y="15.125" width="0.875021" height="0.875021" fill="#246F50"/>
<rect x="28.8468" y="16" width="0.875021" height="0.875021" fill="#246F50"/>
<rect x="28.8468" y="16.875" width="0.875021" height="0.875021" fill="#246F50"/>
<rect x="29.7217" y="16.875" width="0.875021" height="0.875021" fill="#246F50"/>
<rect x="29.7217" y="17.7498" width="0.875021" height="0.875021" fill="#246F50"/>
<rect x="30.5967" y="17.7498" width="0.875021" height="0.875021" fill="#246F50"/>
<rect x="31.4727" y="18.625" width="0.875021" height="0.875021" fill="#246F50"/>
<rect x="30.5967" y="18.625" width="0.875021" height="0.875021" fill="#246F50"/>
<rect x="31.4727" y="19.5" width="0.875021" height="0.875021" fill="#246F50"/>
<rect x="32.3477" y="20.3748" width="0.875021" height="0.875021" fill="#246F50"/>
<rect x="19.2217" y="12.4998" width="0.875021" height="0.875021" fill="#246F50"/>
<rect x="18.3467" y="13.3748" width="0.875021" height="0.875021" fill="#246F50"/>
<rect x="17.4707" y="14.25" width="0.875021" height="0.875021" fill="#246F50"/>
<rect x="16.5965" y="15.125" width="0.875021" height="0.875021" fill="#246F50"/>
<rect x="14.8467" y="17.7498" width="0.875021" height="0.875021" fill="#246F50"/>
<rect x="15.7219" y="16" width="0.875021" height="0.875021" fill="#246F50"/>
<rect x="14.8467" y="16.875" width="0.875021" height="0.875021" fill="#246F50"/>
<rect x="13.0957" y="18.625" width="0.875021" height="0.875021" fill="#246F50"/>
<rect x="13.9717" y="17.7498" width="0.875021" height="0.875021" fill="#246F50"/>
<rect x="13.9717" y="18.625" width="0.875021" height="0.875021" fill="#246F50"/>
<rect x="13.0957" y="19.5" width="0.875021" height="0.875021" fill="#246F50"/>
<rect x="12.2215" y="20.3748" width="0.875021" height="0.875021" fill="#246F50"/>
<rect x="37.5967" y="33.4998" width="0.875021" height="0.875021" fill="#246F50"/>
<rect x="16.5965" y="22.125" width="0.875021" height="0.875021" fill="#246F50"/>
<rect x="16.5965" y="22.9998" width="0.875021" height="0.875021" fill="#246F50"/>
<rect x="15.7219" y="22.9998" width="0.875021" height="0.875021" fill="#246F50"/>
<rect x="15.7219" y="23.875" width="0.875021" height="0.875021" fill="#246F50"/>
<rect x="14.8467" y="24.7498" width="0.875021" height="0.875021" fill="#246F50"/>
<rect x="13.9717" y="25.625" width="0.875021" height="0.875021" fill="#246F50"/>
<rect x="13.0957" y="26.5" width="0.875021" height="0.875021" fill="#246F50"/>
<rect x="13.0957" y="27.3748" width="0.875021" height="0.875021" fill="#246F50"/>
<rect x="12.2215" y="27.3748" width="0.875021" height="0.875021" fill="#246F50"/>
<rect x="12.2215" y="28.25" width="0.875021" height="0.875021" fill="#246F50"/>
<rect x="11.3469" y="28.25" width="0.875021" height="0.875021" fill="#246F50"/>
<rect x="11.3469" y="29.1248" width="0.875021" height="0.875021" fill="#246F50"/>
<rect x="10.4717" y="29.1248" width="0.875021" height="0.875021" fill="#246F50"/>
<rect x="10.4717" y="29.9998" width="0.875021" height="0.875021" fill="#246F50"/>
<rect x="9.59674" y="30.875" width="0.875021" height="0.875021" fill="#246F50"/>
<rect x="9.59674" y="29.9998" width="0.875021" height="0.875021" fill="#246F50"/>
<rect x="8.72168" y="32.6248" width="0.875021" height="0.875021" fill="#246F50"/>
<rect x="8.72168" y="31.7498" width="0.875021" height="0.875021" fill="#246F50"/>
<rect x="7.8465" y="32.6248" width="0.875021" height="0.875021" fill="#246F50"/>
<rect x="7.8465" y="33.4998" width="0.875021" height="0.875021" fill="#246F50"/>
<rect x="35.8466" y="31.7498" width="0.875021" height="0.875021" fill="#246F50"/>
<rect x="34.9709" y="31.7498" width="0.875021" height="0.875021" fill="#246F50"/>
<rect x="35.8466" y="33.4998" width="0.875021" height="0.875021" fill="#246F50"/>
<rect x="27.9707" y="22.125" width="0.875021" height="0.875021" fill="#246F50"/>
<rect x="27.0966" y="22.125" width="0.875021" height="0.875021" fill="#246F50"/>
<rect x="27.9707" y="22.9998" width="0.875021" height="0.875021" fill="#246F50"/>
<rect x="28.8468" y="22.9998" width="0.875021" height="0.875021" fill="#246F50"/>
<rect x="28.8468" y="23.875" width="0.875021" height="0.875021" fill="#246F50"/>
<rect x="29.7217" y="23.875" width="0.875021" height="0.875021" fill="#246F50"/>
<rect x="29.7217" y="24.7498" width="0.875021" height="0.875021" fill="#246F50"/>
<rect x="30.5967" y="24.7498" width="0.875021" height="0.875021" fill="#246F50"/>
<rect x="30.5967" y="25.625" width="0.875021" height="0.875021" fill="#246F50"/>
<rect x="31.4727" y="26.5" width="0.875021" height="0.875021" fill="#246F50"/>
<rect x="32.3477" y="27.3748" width="0.875021" height="0.875021" fill="#246F50"/>
<rect x="33.2218" y="28.25" width="0.875021" height="0.875021" fill="#246F50"/>
<rect x="35.8466" y="33.4998" width="0.875021" height="0.875021" fill="#246F50"/>
<rect x="30.5967" y="26.5" width="0.875021" height="0.875021" fill="#246F50"/>
<rect x="31.4727" y="27.3748" width="0.875021" height="0.875021" fill="#246F50"/>
<rect x="32.3477" y="29.1248" width="0.875021" height="0.875021" fill="#246F50"/>
<rect x="33.2218" y="29.9998" width="0.875021" height="0.875021" fill="#246F50"/>
<rect x="34.0967" y="30.875" width="0.875021" height="0.875021" fill="#246F50"/>
<rect x="32.3477" y="28.25" width="0.875021" height="0.875021" fill="#246F50"/>
<rect x="33.2218" y="29.1248" width="0.875021" height="0.875021" fill="#246F50"/>
<rect x="34.0967" y="29.9998" width="0.875021" height="0.875021" fill="#246F50"/>
<rect x="34.9709" y="30.875" width="0.875021" height="0.875021" fill="#246F50"/>
<rect x="35.8466" y="32.6248" width="0.875021" height="0.875021" fill="#246F50"/>
<rect x="36.7207" y="32.6248" width="0.875021" height="0.875021" fill="#246F50"/>
<rect x="36.7207" y="33.4998" width="0.875021" height="0.875021" fill="#246F50"/>
<path fill-rule="evenodd" clip-rule="evenodd" d="M26.0169 17.6226H25.2625V18.3769H26.0169V17.6226ZM26.7722 18.3773H25.2634V19.1309H24.5037V19.8852H26.7668V19.1317H26.7722V18.3773ZM27.5239 19.8855H24.5065V20.6399H27.5239V19.8855ZM24.5077 20.6401H28.2795V21.3941H31.2954V20.6407H32.0497V19.8865H35.0672V20.6407V20.6409V21.3941H35.0688V21.3951H35.0701V22.1492V22.1494V22.9036H35.0688V22.9039H35.8231V23.6573V23.6582V24.4116H35.0688V24.4119H36.5769V32.7099H23.7527V31.2007H22.9998V25.1658H23.7519V24.4116H24.5077V24.4111H23.7519V23.6567H23.7527V22.9033H24.5077V22.1494L24.5077 22.1487H24.5065V21.3943H24.5077L24.5077 21.3941L24.5077 20.6401ZM36.577 25.1658H37.3313V27.4288H38.0852V29.6919H37.3313V31.2007H36.577V25.1658ZM34.3143 17.6229H33.5599V18.3772H34.3143V17.6229ZM34.3143 19.1317H35.0672V19.886H32.8041V19.1317H32.8055V18.3777H34.3143V19.1317Z" fill="#212121"/>
<path fill-rule="evenodd" clip-rule="evenodd" d="M32.0501 25.1665H30.5413V26.6752H32.0501V25.1665ZM28.2788 25.1666H26.7701V26.6753H28.2788V25.1666Z" fill="white"/>
<path d="M1.37891 35.2241H9.82718V48.5H1.37891L4.195 41.8621L1.37891 35.2241Z" fill="#B22727"/>
<path d="M35.1719 35.2241H43.6202L40.8041 41.8621L43.6202 48.5H35.1719V35.2241Z" fill="#B22727"/>
<path d="M9.82777 48.4999V43.6723L5.00018 41.2585V46.0861L9.82777 48.4999Z" fill="#732D2D"/>
<path d="M35.1726 48.4999V43.6723L40.0002 41.2585V46.0861L35.1726 48.4999Z" fill="#732D2D"/>
<path d="M5.00018 32.8103C5.00018 32.8103 11.6381 31 22.5002 31C33.3623 31 40.0002 32.8103 40.0002 32.8103V46.0862C40.0002 46.0862 32.1554 44.2759 22.5002 44.2759C12.845 44.2759 5.00018 46.0862 5.00018 46.0862V32.8103Z" fill="#D53B3B"/>
<path d="M9.61416 34.4646H10.5644L11.4633 38.1082H11.5077L12.4613 34.4646H13.3397L14.2968 38.1116H14.3378L15.2333 34.4646H16.1869L14.7958 39.4138H13.9105L12.9228 35.9309H12.8817L11.8905 39.4138H11.0087L9.61416 34.4646ZM17.5064 39.4138H16.6177V34.4646H17.5064V39.4138ZM22.3532 39.4138H21.5637L19.2223 36.0334H19.1779V39.4138H18.2892V34.4646H19.089L21.4235 37.8484H21.4679V34.4646H22.3532V39.4138ZM22.9105 34.4646H26.8582V35.2131H25.3304V39.4138H24.4451V35.2131H22.9105V34.4646ZM27.4223 34.4646H30.6386V35.2131H28.311V36.5667H30.4712V37.3083H28.311V38.6653H30.6523V39.4138H27.4223V34.4646ZM31.3497 34.4646H33.2022C33.5759 34.4646 33.8938 34.5295 34.1559 34.6594C34.4179 34.7893 34.615 34.9739 34.7472 35.2131C34.8816 35.4524 34.9488 35.7304 34.9488 36.0471C34.9488 36.3639 34.8816 36.6384 34.7472 36.8708C34.6127 37.1033 34.4133 37.2833 34.149 37.4109C33.8847 37.5385 33.5646 37.6023 33.1886 37.6023H31.8624V36.8572H33.0689C33.2945 36.8572 33.478 36.8264 33.6192 36.7649C33.7605 36.7011 33.8653 36.6099 33.9337 36.4915C34.0043 36.373 34.0396 36.2249 34.0396 36.0471C34.0396 35.8671 34.0043 35.7156 33.9337 35.5925C33.8653 35.4672 33.7594 35.3726 33.6158 35.3088C33.4723 35.2428 33.2888 35.2097 33.0655 35.2097H32.2384V39.4138H31.3497V34.4646ZM35.1266 39.4138H34.1285L32.9288 37.175H33.9029L35.1266 39.4138Z" fill="white"/>
</svg>
