<svg width="33" height="32" viewBox="0 0 33 32" fill="none" xmlns="http://www.w3.org/2000/svg">
<g filter="url(#filter0_f_675_517)">
<path fill-rule="evenodd" clip-rule="evenodd" d="M10.881 9.36374C11.0174 6.37842 13.481 4 16.5 4C19.519 4 21.9826 6.37842 22.119 9.36374C22.4844 9.28916 22.8626 9.25 23.25 9.25C26.3566 9.25 28.875 11.7684 28.875 14.875C28.875 16.9848 27.7135 18.8233 25.995 19.7859C26.3975 20.5609 26.625 21.4414 26.625 22.375C26.625 25.4816 24.1066 28 21 28C19.16 28 17.5263 27.1165 16.5 25.7505C15.4737 27.1165 13.84 28 12 28C8.8934 28 6.375 25.4816 6.375 22.375C6.375 21.4414 6.60246 20.5609 7.00498 19.7859C5.28652 18.8233 4.125 16.9848 4.125 14.875C4.125 11.7684 6.6434 9.25 9.75 9.25C10.1374 9.25 10.5156 9.28916 10.881 9.36374ZM16.5 18.9995C16.9703 18.3735 17.5682 17.8488 18.255 17.4641C17.8902 16.7618 17.6692 15.9729 17.631 15.1363C17.2656 15.2108 16.8874 15.25 16.5 15.25C16.1126 15.25 15.7344 15.2108 15.369 15.1363C15.3308 15.9729 15.1098 16.7618 14.745 17.4641C15.4318 17.8488 16.0297 18.3735 16.5 18.9995Z" fill="white" fill-opacity="0.8"/>
</g>
<g filter="url(#filter1_f_675_517)">
<rect x="13" y="13" width="7" height="7" rx="3.5" fill="#FF0303" fill-opacity="0.56"/>
</g>
<defs>
<filter id="filter0_f_675_517" x="0.125" y="0" width="32.75" height="32" filterUnits="userSpaceOnUse" color-interpolation-filters="sRGB">
<feFlood flood-opacity="0" result="BackgroundImageFix"/>
<feBlend mode="normal" in="SourceGraphic" in2="BackgroundImageFix" result="shape"/>
<feGaussianBlur stdDeviation="2" result="effect1_foregroundBlur_675_517"/>
</filter>
<filter id="filter1_f_675_517" x="9" y="9" width="15" height="15" filterUnits="userSpaceOnUse" color-interpolation-filters="sRGB">
<feFlood flood-opacity="0" result="BackgroundImageFix"/>
<feBlend mode="normal" in="SourceGraphic" in2="BackgroundImageFix" result="shape"/>
<feGaussianBlur stdDeviation="2" result="effect1_foregroundBlur_675_517"/>
</filter>
</defs>
</svg>
