<svg width="19" height="21" viewBox="0 0 19 21" fill="none" xmlns="http://www.w3.org/2000/svg">
<path fill-rule="evenodd" clip-rule="evenodd" d="M5 0H4V1V2V3H2V4H1V6H0V14H1V15H2V16H17V15H18V14H19V6H18V4H17V3H16V2V1V0H15V1H14V2H12V3H8H7V2H6V1H5V0Z" fill="white"/>
<path fill-rule="evenodd" clip-rule="evenodd" d="M4 3H6V5H4V3ZM9 3H11V5H9V3ZM16 3H14V5H16V3ZM12 6H14V8H12V6ZM8 6H6V8H8V6Z" fill="#212121"/>
<rect x="8" y="12" width="4" height="3" fill="#007A0C"/>
<rect x="3" y="13" width="3" height="2" fill="#FB8368"/>
<rect x="14" y="13" width="3" height="2" fill="#FB8368"/>
<rect x="6" y="6" width="1" height="1" fill="#FF1414"/>
<path fill-rule="evenodd" clip-rule="evenodd" d="M8 16H7V17V18H8V17V16Z" fill="white"/>
<rect x="7" y="18" width="1" height="3" fill="#FF1414"/>
<rect x="9" y="18" width="1" height="3" fill="#2714FF"/>
<rect x="11" y="18" width="1" height="3" fill="#FFD914"/>
<path fill-rule="evenodd" clip-rule="evenodd" d="M10 16H9V17V18H10V17V16Z" fill="white"/>
<path fill-rule="evenodd" clip-rule="evenodd" d="M12 16H11V17V18H12V17V16Z" fill="white"/>
<path fill-rule="evenodd" clip-rule="evenodd" d="M5 5H4V6H3V7H4V6H5V5Z" fill="#FFD914"/>
<path fill-rule="evenodd" clip-rule="evenodd" d="M13 2H12V3H11V4H12V3H13V2Z" fill="#FFD914"/>
<rect x="4" y="3" width="1" height="1" fill="#FF1414"/>
<rect x="9" y="3" width="1" height="1" fill="#FF1414"/>
<rect x="14" y="3" width="1" height="1" fill="#FF1414"/>
<rect x="12" y="6" width="1" height="1" fill="#FF1414"/>
</svg>
